<svg width="301" height="293" viewBox="0 0 301 293" fill="none" xmlns="http://www.w3.org/2000/svg">
<path d="M224.249 234.671H76.5906L88.2482 223.419H212.591L224.249 234.671Z" fill="white" stroke="#263238" stroke-width="0.250749" stroke-linecap="round" stroke-linejoin="round"/>
<path d="M207.842 227.762C207.842 230.06 181.103 231.952 148.099 231.952C115.094 231.952 88.3555 230.075 88.3555 227.762C88.3555 225.449 115.094 223.565 148.099 223.565C181.103 223.565 207.842 225.441 207.842 227.762Z" fill="#92E3A9"/>
<path opacity="0.5" d="M207.842 227.762C207.842 230.06 181.103 231.952 148.099 231.952C115.094 231.952 88.3555 230.075 88.3555 227.762C88.3555 225.449 115.094 223.565 148.099 223.565C181.103 223.565 207.842 225.441 207.842 227.762Z" fill="white"/>
<path d="M224.249 234.671H76.5906V245.095H224.249V234.671Z" fill="#263238" stroke="#263238" stroke-width="0.250749" stroke-linecap="round" stroke-linejoin="round"/>
<path d="M234.696 256.339H66.1432L76.5906 245.095H224.249L234.696 256.339Z" fill="white" stroke="#263238" stroke-width="0.250749" stroke-linecap="round" stroke-linejoin="round"/>
<path d="M234.665 256.339H66.1738V267.307H234.665V256.339Z" fill="#263238" stroke="#263238" stroke-width="0.250749" stroke-linecap="round" stroke-linejoin="round"/>
<path d="M148.788 123.464V53.3575H175.466V23.8611" stroke="#263238" stroke-width="0.250749" stroke-miterlimit="10"/>
<path d="M159.213 53.0281V23.8611" stroke="#263238" stroke-width="0.250749" stroke-miterlimit="10"/>
<path d="M150.78 134.639H273.606V117.176H297.082" stroke="#263238" stroke-width="0.250749" stroke-miterlimit="10"/>
<path d="M144.759 134.034H27.9611V115.376H2.67741" stroke="#263238" stroke-width="0.250749" stroke-miterlimit="10"/>
<path d="M124.891 5.19519V31.6891H109.84V48.5397H128.506V105.135" stroke="#263238" stroke-width="0.250749" stroke-miterlimit="10"/>
<path d="M207.375 83.459V45.5296H217.608V29.2764H226.041" stroke="#263238" stroke-width="0.250749" stroke-miterlimit="10"/>
<path d="M83.3539 79.8514V50.9525L74.9209 42.5195V21.4485" stroke="#263238" stroke-width="0.250749" stroke-miterlimit="10"/>
<path d="M230.254 96.7097H251.325V82.8615H265.173V75.0336H277.213" stroke="#263238" stroke-width="0.250749" stroke-miterlimit="10"/>
<path d="M62.2752 101.527H40.0017V84.064H8.69769" stroke="#263238" stroke-width="0.250749" stroke-miterlimit="10"/>
<path d="M82.7488 196.044V211.7H72.5158V229.164H43.0118" stroke="#263238" stroke-width="0.250749" stroke-miterlimit="10"/>
<path d="M195.334 198.457V214.71H218.81V208.093H225.436V221.933H245.909" stroke="#263238" stroke-width="0.250749" stroke-miterlimit="10"/>
<path d="M177.182 23.8611C177.18 24.2001 177.078 24.5311 176.889 24.8122C176.699 25.0934 176.431 25.3121 176.117 25.4408C175.803 25.5695 175.459 25.6023 175.126 25.5353C174.794 25.4682 174.489 25.3042 174.25 25.064C174.011 24.8237 173.848 24.518 173.783 24.1854C173.717 23.8528 173.751 23.5082 173.881 23.1952C174.012 22.8821 174.231 22.6146 174.513 22.4264C174.795 22.2382 175.127 22.1378 175.466 22.1378C175.692 22.1378 175.915 22.1824 176.124 22.2691C176.333 22.3558 176.522 22.4829 176.682 22.643C176.841 22.8031 176.967 22.9932 177.053 23.2022C177.139 23.4113 177.183 23.6352 177.182 23.8611Z" fill="#263238" stroke="#263238" stroke-width="0.250749" stroke-linecap="round" stroke-linejoin="round"/>
<path d="M160.99 23.8611C160.988 24.2001 160.886 24.5311 160.697 24.8122C160.507 25.0934 160.239 25.3121 159.925 25.4408C159.611 25.5695 159.267 25.6023 158.934 25.5353C158.602 25.4682 158.297 25.3042 158.058 25.064C157.819 24.8237 157.656 24.518 157.591 24.1854C157.525 23.8528 157.559 23.5082 157.689 23.1952C157.82 22.8821 158.039 22.6146 158.321 22.4264C158.603 22.2382 158.935 22.1378 159.274 22.1378C159.5 22.1378 159.724 22.1824 159.932 22.2691C160.141 22.3558 160.33 22.4829 160.49 22.643C160.649 22.8031 160.775 22.9932 160.861 23.2022C160.947 23.4113 160.991 23.6352 160.99 23.8611Z" fill="#263238" stroke="#263238" stroke-width="0.250749" stroke-linecap="round" stroke-linejoin="round"/>
<path d="M126.622 4.69734C126.622 5.03851 126.521 5.37201 126.331 5.65558C126.141 5.93915 125.872 6.16003 125.556 6.29024C125.241 6.42045 124.894 6.45413 124.559 6.38701C124.225 6.31989 123.918 6.15499 123.677 5.9132C123.436 5.67142 123.273 5.36363 123.207 5.02883C123.142 4.69403 123.177 4.34728 123.308 4.03251C123.44 3.71774 123.662 3.44912 123.947 3.26068C124.231 3.07224 124.565 2.97245 124.906 2.97397C125.132 2.97397 125.356 3.0186 125.564 3.1053C125.773 3.192 125.963 3.31907 126.122 3.4792C126.281 3.63933 126.408 3.82937 126.493 4.03841C126.579 4.24745 126.623 4.47138 126.622 4.69734Z" fill="#263238" stroke="#263238" stroke-width="0.250749" stroke-linecap="round" stroke-linejoin="round"/>
<path d="M76.6519 20.5829C76.6504 20.9219 76.5485 21.2529 76.359 21.534C76.1696 21.8151 75.9011 22.0339 75.5875 22.1625C75.2738 22.2912 74.9291 22.3241 74.5968 22.2571C74.2645 22.19 73.9595 22.026 73.7203 21.7857C73.4811 21.5455 73.3185 21.2398 73.2529 20.9072C73.1873 20.5746 73.2217 20.23 73.3518 19.9169C73.4819 19.6039 73.7018 19.3364 73.9838 19.1482C74.2658 18.96 74.5972 18.8596 74.9362 18.8596C75.1622 18.8595 75.3859 18.9042 75.5945 18.9909C75.8032 19.0776 75.9927 19.2046 76.1521 19.3648C76.3115 19.5249 76.4377 19.7149 76.5235 19.924C76.6093 20.133 76.6529 20.357 76.6519 20.5829Z" fill="#263238" stroke="#263238" stroke-width="0.250749" stroke-linecap="round" stroke-linejoin="round"/>
<path d="M10.4134 84.0641C10.4149 84.4056 10.3149 84.7398 10.1262 85.0244C9.93738 85.309 9.6683 85.531 9.35309 85.6624C9.03787 85.7938 8.69073 85.8286 8.35572 85.7623C8.02071 85.6961 7.71293 85.5318 7.47145 85.2903C7.22998 85.0488 7.06568 84.741 6.99943 84.406C6.93318 84.071 6.96796 83.7239 7.09934 83.4087C7.23073 83.0935 7.4528 82.8244 7.73738 82.6356C8.02196 82.4468 8.3562 82.3468 8.6977 82.3484C9.15273 82.3484 9.58913 82.5291 9.91088 82.8509C10.2326 83.1726 10.4134 83.609 10.4134 84.0641Z" fill="#263238" stroke="#263238" stroke-width="0.250749" stroke-linecap="round" stroke-linejoin="round"/>
<path d="M4.44673 115.322C4.44673 115.663 4.34566 115.996 4.15629 116.28C3.96692 116.563 3.69777 116.784 3.38287 116.914C3.06797 117.045 2.72146 117.079 2.38715 117.012C2.05285 116.946 1.74578 116.782 1.50476 116.541C1.26375 116.3 1.09961 115.993 1.03312 115.658C0.966619 115.324 1.00075 114.977 1.13118 114.663C1.26162 114.348 1.48251 114.079 1.76592 113.889C2.04932 113.7 2.38252 113.599 2.72337 113.599C3.18043 113.599 3.61877 113.78 3.94197 114.103C4.26516 114.427 4.44673 114.865 4.44673 115.322Z" fill="#263238" stroke="#263238" stroke-width="0.250749" stroke-linecap="round" stroke-linejoin="round"/>
<path d="M44.8807 228.834C44.8807 229.176 44.7794 229.509 44.5897 229.793C44.4 230.076 44.1304 230.297 43.8151 230.427C43.4997 230.557 43.1528 230.591 42.8183 230.524C42.4838 230.457 42.1767 230.292 41.936 230.05C41.6953 229.808 41.5318 229.501 41.4662 229.166C41.4005 228.831 41.4358 228.484 41.5674 228.17C41.699 227.855 41.9211 227.586 42.2055 227.398C42.4899 227.209 42.8238 227.109 43.165 227.111C43.391 227.111 43.6147 227.156 43.8233 227.242C44.032 227.329 44.2215 227.456 44.3809 227.616C44.5403 227.776 44.6665 227.966 44.7523 228.175C44.8381 228.384 44.8817 228.608 44.8807 228.834Z" fill="#263238" stroke="#263238" stroke-width="0.250749" stroke-linecap="round" stroke-linejoin="round"/>
<path d="M248.498 221.596C248.5 221.937 248.4 222.271 248.211 222.556C248.023 222.84 247.754 223.062 247.44 223.194C247.125 223.325 246.778 223.361 246.443 223.295C246.109 223.229 245.801 223.066 245.559 222.825C245.317 222.584 245.152 222.277 245.085 221.943C245.018 221.608 245.052 221.262 245.182 220.946C245.312 220.631 245.533 220.361 245.817 220.172C246.1 219.982 246.434 219.881 246.775 219.881C247.001 219.88 247.225 219.923 247.434 220.009C247.643 220.095 247.833 220.221 247.993 220.38C248.153 220.54 248.28 220.729 248.367 220.938C248.454 221.147 248.498 221.37 248.498 221.596Z" fill="#263238" stroke="#263238" stroke-width="0.250749" stroke-linecap="round" stroke-linejoin="round"/>
<path d="M299.671 116.839C299.671 117.178 299.57 117.51 299.382 117.792C299.193 118.074 298.925 118.294 298.612 118.424C298.298 118.554 297.953 118.588 297.62 118.521C297.287 118.455 296.982 118.292 296.742 118.052C296.502 117.812 296.338 117.506 296.272 117.173C296.206 116.841 296.24 116.496 296.37 116.182C296.5 115.869 296.72 115.601 297.002 115.412C297.284 115.224 297.616 115.123 297.955 115.123C298.41 115.123 298.846 115.304 299.168 115.625C299.49 115.947 299.671 116.384 299.671 116.839Z" fill="#263238" stroke="#263238" stroke-width="0.250749" stroke-linecap="round" stroke-linejoin="round"/>
<path d="M279.741 74.666C279.741 75.0053 279.64 75.337 279.452 75.6192C279.263 75.9013 278.995 76.1212 278.682 76.2511C278.368 76.3809 278.023 76.4149 277.69 76.3487C277.358 76.2825 277.052 76.1191 276.812 75.8792C276.572 75.6392 276.409 75.3335 276.342 75.0007C276.276 74.6679 276.31 74.3229 276.44 74.0094C276.57 73.6959 276.79 73.4279 277.072 73.2394C277.354 73.0509 277.686 72.9503 278.025 72.9503C278.48 72.9503 278.917 73.131 279.238 73.4528C279.56 73.7745 279.741 74.2109 279.741 74.666Z" fill="#263238" stroke="#263238" stroke-width="0.250749" stroke-linecap="round" stroke-linejoin="round"/>
<path d="M228.867 29.2304C228.867 29.5697 228.767 29.9014 228.578 30.1836C228.389 30.4657 228.122 30.6856 227.808 30.8155C227.495 30.9454 227.15 30.9793 226.817 30.9131C226.484 30.8469 226.178 30.6835 225.938 30.4436C225.698 30.2036 225.535 29.8979 225.469 29.5651C225.403 29.2323 225.436 28.8873 225.566 28.5738C225.696 28.2603 225.916 27.9924 226.198 27.8038C226.48 27.6153 226.812 27.5147 227.151 27.5147C227.606 27.5147 228.043 27.6954 228.365 28.0172C228.686 28.339 228.867 28.7754 228.867 29.2304Z" fill="#263238" stroke="#263238" stroke-width="0.250749" stroke-linecap="round" stroke-linejoin="round"/>
<path d="M171.261 211.218V196.282H126.315V211.218C126.302 216.101 124.615 220.832 121.536 224.622L119.568 227.057H177.993L176.033 224.622C172.954 220.832 171.269 216.1 171.261 211.218Z" fill="white"/>
<mask id="mask0_1_533" style="mask-type:luminance" maskUnits="userSpaceOnUse" x="119" y="196" width="59" height="32">
<path d="M171.261 211.218V196.282H126.315V211.218C126.302 216.101 124.615 220.832 121.536 224.622L119.568 227.057H177.993L176.033 224.622C172.954 220.832 171.269 216.1 171.261 211.218Z" fill="white"/>
</mask>
<g mask="url(#mask0_1_533)">
<path d="M123.558 221.68H174.018C172.213 218.489 171.263 214.885 171.261 211.218V196.282H126.315V211.218C126.314 214.885 125.364 218.489 123.558 221.68Z" fill="#92E3A9"/>
<path opacity="0.3" d="M123.558 221.68H174.018C172.213 218.489 171.263 214.885 171.261 211.218V196.282H126.315V211.218C126.314 214.885 125.364 218.489 123.558 221.68Z" fill="white"/>
<path d="M123.558 205.933H174.018C172.213 202.741 171.263 199.137 171.261 195.47V180.534H126.315V195.47C126.314 199.137 125.364 202.741 123.558 205.933Z" fill="#263238"/>
</g>
<path d="M171.261 211.218V196.282H126.315V211.218C126.302 216.101 124.615 220.832 121.536 224.622L119.568 227.057H177.993L176.033 224.622C172.954 220.832 171.269 216.1 171.261 211.218Z" stroke="#263238" stroke-width="0.250749" stroke-linecap="round" stroke-linejoin="round"/>
<path d="M232.605 68.3623H64.9713C61.3841 68.3623 58.4761 71.2703 58.4761 74.8574V194.49C58.4761 198.077 61.3841 200.985 64.9713 200.985H232.605C236.192 200.985 239.1 198.077 239.1 194.49V74.8574C239.1 71.2703 236.192 68.3623 232.605 68.3623Z" fill="#263238" stroke="#263238" stroke-width="0.250749" stroke-linecap="round" stroke-linejoin="round"/>
<path d="M58.4761 180.373H239.1V194.49C239.1 196.212 238.416 197.864 237.198 199.082C235.98 200.3 234.328 200.985 232.605 200.985H64.9713C63.2487 200.985 61.5966 200.3 60.3785 199.082C59.1604 197.864 58.4761 196.212 58.4761 194.49V180.373Z" fill="white" stroke="#263238" stroke-width="0.250749" stroke-linecap="round" stroke-linejoin="round"/>
<path d="M230.008 76.6191H67.5602V170.317H230.008V76.6191Z" fill="white" stroke="#263238" stroke-width="0.250749" stroke-linecap="round" stroke-linejoin="round"/>
<path d="M152.12 193.984C152.134 193.322 151.95 192.672 151.592 192.115C151.235 191.558 150.719 191.12 150.112 190.857C149.504 190.594 148.832 190.518 148.181 190.639C147.531 190.76 146.931 191.072 146.458 191.535C145.985 191.998 145.66 192.591 145.526 193.239C145.392 193.887 145.454 194.561 145.704 195.174C145.954 195.787 146.381 196.311 146.93 196.68C147.479 197.05 148.126 197.247 148.788 197.247C149.662 197.255 150.504 196.916 151.129 196.305C151.753 195.693 152.11 194.858 152.12 193.984Z" fill="#263238" stroke="#263238" stroke-width="0.250749" stroke-linecap="round" stroke-linejoin="round"/>
<path d="M178.009 227.08H119.575V229.746H178.009V227.08Z" fill="white" stroke="#263238" stroke-width="0.250749" stroke-linecap="round" stroke-linejoin="round"/>
<path d="M149.033 71.7554C140.868 79.4148 119.928 87.0742 95.563 103.381C95.563 103.381 97.0948 158.529 149.033 188.638V71.7554Z" fill="#92E3A9" stroke="#263238" stroke-width="0.250749" stroke-linecap="round" stroke-linejoin="round"/>
<path d="M149.033 71.7554C157.206 79.4148 178.139 87.0742 202.511 103.381C202.511 103.381 200.979 158.529 149.033 188.638V71.7554Z" fill="#263238" stroke="#263238" stroke-width="0.250749" stroke-linecap="round" stroke-linejoin="round"/>
<path d="M149.033 76.4506C139.153 83.2981 122.08 89.8162 99.4846 104.936C99.4846 104.936 100.902 156.024 149.033 183.95C197.173 156.024 198.59 104.936 198.59 104.936C175.994 89.8162 158.975 83.2981 149.033 76.4506Z" fill="#263238" stroke="#263238" stroke-width="0.250749" stroke-linecap="round" stroke-linejoin="round"/>
<path d="M198.59 104.936C175.994 89.8239 158.975 83.2981 149.033 76.4506V183.95C197.173 156.024 198.59 104.936 198.59 104.936Z" fill="#92E3A9" stroke="#263238" stroke-width="0.250749" stroke-linecap="round" stroke-linejoin="round"/>
<path d="M239.659 131.981H57.917V143.746H239.659V131.981Z" fill="#263238" stroke="#263238" stroke-width="0.250749" stroke-linecap="round" stroke-linejoin="round"/>
<path d="M61.4939 133.85C61.4985 134.092 61.431 134.33 61.3 134.533C61.1689 134.736 60.9804 134.896 60.7583 134.992C60.5362 135.087 60.2906 135.115 60.0529 135.07C59.8152 135.026 59.596 134.912 59.4234 134.742C59.2508 134.573 59.1325 134.356 59.0836 134.119C59.0347 133.882 59.0575 133.636 59.1489 133.413C59.2404 133.189 59.3964 132.997 59.5972 132.862C59.7979 132.727 60.0343 132.655 60.2761 132.655C60.4347 132.653 60.5921 132.683 60.7392 132.742C60.8864 132.801 61.0204 132.888 61.1336 132.999C61.2468 133.11 61.3369 133.243 61.3988 133.389C61.4606 133.535 61.4929 133.692 61.4939 133.85Z" fill="white"/>
<path d="M59.5791 134.509C59.7124 134.649 59.8845 134.746 60.0734 134.788C60.2623 134.83 60.4593 134.815 60.6394 134.744C60.8195 134.673 60.9743 134.55 61.0843 134.391C61.1942 134.232 61.2542 134.044 61.2565 133.85C61.2539 133.62 61.1666 133.399 61.0114 133.23C60.5054 133.623 60.0268 134.05 59.5791 134.509Z" fill="#263238"/>
<path d="M66.2734 133.85C66.2795 134.094 66.2128 134.334 66.0819 134.539C65.951 134.745 65.7618 134.907 65.5385 135.004C65.3152 135.101 65.0679 135.13 64.8282 135.086C64.5885 135.043 64.3672 134.928 64.1928 134.758C64.0183 134.588 63.8985 134.37 63.8487 134.131C63.7989 133.893 63.8213 133.645 63.9131 133.419C64.0048 133.193 64.1618 133 64.364 132.864C64.5661 132.728 64.8042 132.655 65.0479 132.655C65.2068 132.653 65.3646 132.683 65.5122 132.742C65.6598 132.8 65.7944 132.888 65.9082 132.999C66.022 133.11 66.1128 133.242 66.1755 133.388C66.2381 133.534 66.2714 133.691 66.2734 133.85Z" fill="white"/>
<path d="M64.3509 134.509C64.4842 134.649 64.6563 134.746 64.8452 134.788C65.0341 134.83 65.2311 134.815 65.4112 134.744C65.5913 134.673 65.7461 134.55 65.8561 134.391C65.966 134.232 66.026 134.044 66.0283 133.85C66.0257 133.62 65.9385 133.399 65.7832 133.23C65.2788 133.625 64.8004 134.052 64.3509 134.509Z" fill="#263238"/>
<path d="M71.0452 133.85C71.0209 134.157 70.8816 134.444 70.6552 134.653C70.4288 134.863 70.1318 134.979 69.8235 134.979C69.5153 134.979 69.2183 134.863 68.9919 134.653C68.7655 134.444 68.6262 134.157 68.6019 133.85C68.6262 133.543 68.7655 133.256 68.9919 133.047C69.2183 132.838 69.5153 132.721 69.8235 132.721C70.1318 132.721 70.4288 132.838 70.6552 133.047C70.8816 133.256 71.0209 133.543 71.0452 133.85Z" fill="white"/>
<path d="M69.1227 134.509C69.2141 134.603 69.3236 134.679 69.4447 134.73C69.5657 134.781 69.6959 134.808 69.8274 134.808C69.9541 134.809 70.0798 134.785 70.1973 134.737C70.3148 134.689 70.4217 134.619 70.512 134.53C70.6024 134.441 70.6743 134.336 70.7237 134.219C70.7732 134.102 70.7991 133.977 70.8001 133.85C70.8005 133.62 70.7128 133.398 70.555 133.23C70.0506 133.625 69.5722 134.052 69.1227 134.509Z" fill="#263238"/>
<path d="M75.817 133.85C75.8216 134.092 75.7541 134.33 75.623 134.533C75.492 134.736 75.3035 134.896 75.0814 134.992C74.8593 135.087 74.6137 135.115 74.376 135.07C74.1383 135.026 73.9191 134.912 73.7465 134.742C73.5739 134.573 73.4556 134.356 73.4067 134.119C73.3578 133.882 73.3805 133.636 73.472 133.413C73.5635 133.189 73.7195 132.997 73.9202 132.862C74.121 132.727 74.3573 132.655 74.5992 132.655C74.7577 132.653 74.9151 132.683 75.0623 132.742C75.2095 132.801 75.3435 132.888 75.4567 132.999C75.5699 133.11 75.66 133.243 75.7218 133.389C75.7837 133.535 75.816 133.692 75.817 133.85Z" fill="white"/>
<path d="M73.8945 134.509C74.0289 134.648 74.2015 134.744 74.3904 134.785C74.5793 134.827 74.7763 134.811 74.9564 134.741C75.1365 134.67 75.2918 134.548 75.4027 134.39C75.5136 134.231 75.5751 134.044 75.5796 133.85C75.577 133.62 75.4897 133.399 75.3345 133.23C74.8261 133.623 74.345 134.05 73.8945 134.509Z" fill="#263238"/>
<path d="M80.5888 133.85C80.5934 134.092 80.5259 134.33 80.3948 134.533C80.2638 134.736 80.0753 134.896 79.8532 134.992C79.6311 135.087 79.3855 135.115 79.1478 135.07C78.9101 135.026 78.6909 134.912 78.5183 134.742C78.3457 134.573 78.2274 134.356 78.1785 134.119C78.1296 133.882 78.1523 133.636 78.2438 133.413C78.3353 133.189 78.4913 132.997 78.6921 132.862C78.8928 132.727 79.1291 132.655 79.371 132.655C79.5295 132.653 79.6869 132.683 79.8341 132.742C79.9813 132.801 80.1153 132.888 80.2285 132.999C80.3417 133.11 80.4318 133.243 80.4936 133.389C80.5555 133.535 80.5878 133.692 80.5888 133.85Z" fill="white"/>
<path d="M78.6433 134.509C78.735 134.603 78.8446 134.678 78.9656 134.729C79.0866 134.781 79.2166 134.807 79.348 134.808C79.4754 134.81 79.6019 134.786 79.7203 134.739C79.8386 134.692 79.9465 134.622 80.0376 134.533C80.1288 134.444 80.2014 134.338 80.2513 134.221C80.3012 134.103 80.3274 133.978 80.3284 133.85C80.3258 133.62 80.2386 133.399 80.0833 133.23C79.5765 133.625 79.0956 134.052 78.6433 134.509Z" fill="#263238"/>
<path d="M85.3606 133.85C85.3652 134.092 85.2977 134.33 85.1667 134.533C85.0356 134.736 84.8471 134.896 84.625 134.992C84.4029 135.087 84.1573 135.115 83.9196 135.07C83.6819 135.026 83.4627 134.912 83.2901 134.742C83.1175 134.573 82.9992 134.356 82.9503 134.119C82.9014 133.882 82.9242 133.636 83.0156 133.413C83.1071 133.189 83.2631 132.997 83.4639 132.862C83.6646 132.727 83.9009 132.655 84.1428 132.655C84.3013 132.653 84.4587 132.683 84.6059 132.742C84.7531 132.801 84.8871 132.888 85.0003 132.999C85.1135 133.11 85.2036 133.243 85.2654 133.389C85.3273 133.535 85.3596 133.692 85.3606 133.85Z" fill="white"/>
<path d="M83.4458 134.509C83.5791 134.649 83.7512 134.746 83.9401 134.788C84.129 134.83 84.326 134.815 84.5061 134.744C84.6861 134.673 84.841 134.55 84.9509 134.391C85.0609 134.232 85.1209 134.044 85.1232 133.85C85.1206 133.62 85.0333 133.399 84.8781 133.23C84.3721 133.623 83.8935 134.05 83.4458 134.509Z" fill="#263238"/>
<path d="M90.1324 133.85C90.1385 134.094 90.0719 134.334 89.941 134.539C89.8101 134.745 89.6209 134.907 89.3975 135.004C89.1742 135.101 88.9269 135.13 88.6872 135.086C88.4475 135.043 88.2263 134.928 88.0518 134.758C87.8773 134.588 87.7575 134.37 87.7077 134.131C87.6579 133.893 87.6803 133.645 87.7721 133.419C87.8639 133.193 88.0209 133 88.223 132.864C88.4252 132.728 88.6633 132.655 88.9069 132.655C89.0659 132.653 89.2236 132.683 89.3712 132.742C89.5188 132.8 89.6534 132.888 89.7672 132.999C89.881 133.11 89.9718 133.242 90.0345 133.388C90.0972 133.534 90.1304 133.691 90.1324 133.85Z" fill="white"/>
<path d="M88.2176 134.509C88.3509 134.649 88.523 134.746 88.7119 134.788C88.9008 134.83 89.0978 134.815 89.2779 134.744C89.4579 134.673 89.6128 134.55 89.7228 134.391C89.8327 134.232 89.8927 134.044 89.895 133.85C89.8924 133.62 89.8051 133.399 89.6499 133.23C89.1455 133.625 88.6671 134.052 88.2176 134.509Z" fill="#263238"/>
<path d="M94.9119 133.85C94.9165 134.092 94.8489 134.33 94.7179 134.533C94.5869 134.736 94.3983 134.896 94.1763 134.992C93.9542 135.087 93.7086 135.115 93.4709 135.07C93.2331 135.026 93.014 134.912 92.8414 134.742C92.6688 134.573 92.5505 134.356 92.5016 134.119C92.4527 133.882 92.4754 133.636 92.5669 133.413C92.6584 133.189 92.8144 132.997 93.0151 132.862C93.2159 132.727 93.4522 132.655 93.6941 132.655C93.8526 132.653 94.01 132.683 94.1572 132.742C94.3044 132.801 94.4384 132.888 94.5516 132.999C94.6648 133.11 94.7549 133.243 94.8167 133.389C94.8786 133.535 94.9109 133.692 94.9119 133.85Z" fill="white"/>
<path d="M92.9894 134.509C93.0808 134.603 93.1903 134.679 93.3114 134.73C93.4324 134.781 93.5626 134.808 93.6941 134.808C93.8208 134.809 93.9465 134.785 94.064 134.737C94.1815 134.689 94.2884 134.619 94.3787 134.53C94.4691 134.441 94.541 134.336 94.5904 134.219C94.6398 134.102 94.6658 133.977 94.6668 133.85C94.6672 133.62 94.5795 133.398 94.4217 133.23C93.9173 133.625 93.4389 134.052 92.9894 134.509Z" fill="#263238"/>
<path d="M99.6837 133.85C99.6883 134.092 99.6207 134.33 99.4897 134.533C99.3587 134.736 99.1702 134.896 98.9481 134.992C98.726 135.087 98.4804 135.115 98.2427 135.07C98.005 135.026 97.7858 134.912 97.6132 134.742C97.4406 134.573 97.3223 134.356 97.2734 134.119C97.2245 133.882 97.2472 133.636 97.3387 133.413C97.4302 133.189 97.5862 132.997 97.7869 132.862C97.9877 132.727 98.224 132.655 98.4659 132.655C98.6244 132.653 98.7818 132.683 98.929 132.742C99.0762 132.801 99.2102 132.888 99.3234 132.999C99.4366 133.11 99.5267 133.243 99.5885 133.389C99.6504 133.535 99.6827 133.692 99.6837 133.85Z" fill="white"/>
<path d="M97.7918 134.509C97.9263 134.648 98.0988 134.744 98.2877 134.785C98.4767 134.827 98.6736 134.811 98.8537 134.741C99.0338 134.67 99.1891 134.548 99.3 134.39C99.4109 134.231 99.4724 134.044 99.4769 133.85C99.4743 133.62 99.3871 133.399 99.2318 133.23C98.7251 133.625 98.2441 134.052 97.7918 134.509Z" fill="#263238"/>
<path d="M104.456 133.85C104.46 134.092 104.393 134.33 104.262 134.533C104.131 134.736 103.942 134.896 103.72 134.992C103.498 135.087 103.252 135.115 103.014 135.07C102.777 135.026 102.558 134.912 102.385 134.742C102.212 134.573 102.094 134.356 102.045 134.119C101.996 133.882 102.019 133.636 102.111 133.413C102.202 133.189 102.358 132.997 102.559 132.862C102.76 132.727 102.996 132.655 103.238 132.655C103.396 132.653 103.554 132.683 103.701 132.742C103.848 132.801 103.982 132.888 104.095 132.999C104.208 133.11 104.299 133.243 104.36 133.389C104.422 133.535 104.455 133.692 104.456 133.85Z" fill="white"/>
<path d="M102.533 134.509C102.625 134.603 102.734 134.678 102.855 134.729C102.976 134.781 103.106 134.807 103.238 134.808C103.365 134.81 103.492 134.786 103.61 134.739C103.728 134.692 103.836 134.622 103.927 134.533C104.018 134.444 104.091 134.338 104.141 134.221C104.191 134.103 104.217 133.978 104.218 133.85C104.215 133.62 104.128 133.399 103.973 133.23C103.466 133.625 102.985 134.052 102.533 134.509Z" fill="#263238"/>
<path d="M109.227 133.85C109.232 134.092 109.164 134.33 109.033 134.533C108.902 134.736 108.714 134.896 108.492 134.992C108.27 135.087 108.024 135.115 107.786 135.07C107.549 135.026 107.329 134.912 107.157 134.742C106.984 134.573 106.866 134.356 106.817 134.119C106.768 133.882 106.791 133.636 106.882 133.413C106.974 133.189 107.13 132.997 107.331 132.862C107.531 132.727 107.768 132.655 108.009 132.655C108.168 132.653 108.325 132.683 108.473 132.742C108.62 132.801 108.754 132.888 108.867 132.999C108.98 133.11 109.07 133.243 109.132 133.389C109.194 133.535 109.226 133.692 109.227 133.85Z" fill="white"/>
<path d="M107.312 134.509C107.446 134.649 107.618 134.746 107.807 134.788C107.996 134.83 108.193 134.815 108.373 134.744C108.553 134.673 108.708 134.55 108.818 134.391C108.928 134.232 108.988 134.044 108.99 133.85C108.987 133.62 108.9 133.399 108.745 133.23C108.24 133.625 107.762 134.052 107.312 134.509Z" fill="#263238"/>
<path d="M114.007 133.85C114.013 134.094 113.946 134.334 113.815 134.54C113.684 134.746 113.494 134.907 113.27 135.005C113.046 135.102 112.799 135.13 112.559 135.086C112.319 135.041 112.098 134.926 111.923 134.756C111.749 134.585 111.63 134.366 111.581 134.127C111.532 133.888 111.556 133.639 111.649 133.414C111.742 133.188 111.9 132.996 112.103 132.86C112.306 132.725 112.545 132.654 112.789 132.655C112.948 132.653 113.105 132.683 113.252 132.742C113.399 132.801 113.533 132.888 113.646 132.999C113.76 133.11 113.85 133.243 113.912 133.389C113.973 133.535 114.006 133.692 114.007 133.85Z" fill="white"/>
<path d="M112.084 134.509C112.218 134.649 112.39 134.746 112.579 134.788C112.767 134.83 112.965 134.815 113.145 134.744C113.325 134.673 113.48 134.55 113.589 134.391C113.699 134.232 113.759 134.044 113.762 133.85C113.762 133.62 113.674 133.398 113.517 133.23C113.012 133.625 112.534 134.052 112.084 134.509Z" fill="#263238"/>
<path d="M118.779 133.85C118.783 134.092 118.716 134.33 118.585 134.533C118.454 134.736 118.265 134.896 118.043 134.992C117.821 135.087 117.575 135.115 117.338 135.07C117.1 135.026 116.881 134.912 116.708 134.742C116.535 134.573 116.417 134.356 116.368 134.119C116.319 133.882 116.342 133.636 116.434 133.413C116.525 133.189 116.681 132.997 116.882 132.862C117.083 132.727 117.319 132.655 117.561 132.655C117.719 132.653 117.877 132.683 118.024 132.742C118.171 132.801 118.305 132.888 118.418 132.999C118.531 133.11 118.622 133.243 118.683 133.389C118.745 133.535 118.778 133.692 118.779 133.85Z" fill="white"/>
<path d="M116.856 134.509C116.991 134.648 117.163 134.744 117.352 134.785C117.541 134.827 117.738 134.811 117.918 134.741C118.098 134.67 118.253 134.548 118.364 134.39C118.475 134.231 118.537 134.044 118.541 133.85C118.539 133.62 118.451 133.399 118.296 133.23C117.788 133.623 117.307 134.05 116.856 134.509Z" fill="#263238"/>
<path d="M123.55 133.85C123.555 134.092 123.487 134.33 123.356 134.533C123.225 134.736 123.037 134.896 122.815 134.992C122.593 135.087 122.347 135.115 122.109 135.07C121.872 135.026 121.652 134.912 121.48 134.742C121.307 134.573 121.189 134.356 121.14 134.119C121.091 133.882 121.114 133.636 121.205 133.413C121.297 133.189 121.453 132.997 121.654 132.862C121.854 132.727 122.091 132.655 122.333 132.655C122.491 132.653 122.649 132.683 122.796 132.742C122.943 132.801 123.077 132.888 123.19 132.999C123.303 133.11 123.393 133.243 123.455 133.389C123.517 133.535 123.549 133.692 123.55 133.85Z" fill="white"/>
<path d="M121.628 134.509C121.72 134.603 121.829 134.678 121.95 134.729C122.071 134.781 122.201 134.807 122.333 134.808C122.46 134.81 122.586 134.786 122.705 134.739C122.823 134.692 122.931 134.622 123.022 134.533C123.113 134.444 123.186 134.338 123.236 134.221C123.286 134.103 123.312 133.978 123.313 133.85C123.31 133.62 123.223 133.399 123.068 133.23C122.561 133.625 122.08 134.052 121.628 134.509Z" fill="#263238"/>
<path d="M61.4939 141.441C61.5 141.683 61.4338 141.921 61.3038 142.125C61.1737 142.33 60.9857 142.49 60.7638 142.587C60.5418 142.684 60.2961 142.713 60.0579 142.669C59.8196 142.626 59.5998 142.512 59.4264 142.343C59.253 142.174 59.1339 141.957 59.0844 141.72C59.0349 141.483 59.0571 141.237 59.1483 141.013C59.2395 140.788 59.3955 140.596 59.5964 140.461C59.7973 140.326 60.0339 140.253 60.2761 140.253C60.434 140.251 60.5908 140.28 60.7375 140.339C60.8841 140.398 61.0178 140.484 61.1309 140.595C61.244 140.705 61.3343 140.836 61.3966 140.982C61.4589 141.127 61.4919 141.283 61.4939 141.441Z" fill="white"/>
<path d="M59.5791 142.107C59.6688 142.202 59.7769 142.277 59.8968 142.328C60.0166 142.38 60.1457 142.406 60.2761 142.406C60.4038 142.407 60.5305 142.383 60.6489 142.335C60.7673 142.287 60.8751 142.216 60.9662 142.126C61.0572 142.037 61.1297 141.93 61.1795 141.812C61.2293 141.695 61.2555 141.568 61.2565 141.441C61.2521 141.213 61.1649 140.995 61.0114 140.828C60.5054 141.221 60.0268 141.648 59.5791 142.107Z" fill="#263238"/>
<path d="M66.2734 141.441C66.281 141.684 66.2157 141.925 66.0858 142.132C65.9558 142.338 65.7672 142.501 65.544 142.6C65.3209 142.698 65.0734 142.728 64.8332 142.685C64.593 142.642 64.3711 142.529 64.1958 142.359C64.0206 142.189 63.9 141.971 63.8495 141.732C63.799 141.494 63.821 141.245 63.9125 141.019C64.004 140.793 64.161 140.599 64.3632 140.463C64.5655 140.326 64.8039 140.254 65.0479 140.253C65.3676 140.249 65.6759 140.372 65.9055 140.594C66.1351 140.817 66.2674 141.121 66.2734 141.441Z" fill="white"/>
<path d="M64.3509 142.107C64.4406 142.202 64.5487 142.277 64.6686 142.328C64.7884 142.38 64.9175 142.406 65.0479 142.406C65.1757 142.407 65.3023 142.383 65.4207 142.335C65.5391 142.287 65.647 142.216 65.738 142.126C65.829 142.037 65.9015 141.93 65.9513 141.812C66.0011 141.695 66.0273 141.568 66.0283 141.441C66.0239 141.213 65.9367 140.995 65.7832 140.828C65.2788 141.223 64.8004 141.65 64.3509 142.107Z" fill="#263238"/>
<path d="M71.0452 141.441C71.0529 141.685 70.9873 141.926 70.857 142.132C70.7268 142.339 70.5377 142.502 70.3141 142.601C70.0905 142.699 69.8425 142.728 69.6021 142.685C69.3617 142.641 69.1398 142.527 68.9649 142.356C68.7899 142.186 68.6699 141.967 68.6203 141.728C68.5707 141.488 68.5938 141.24 68.6865 141.014C68.7792 140.788 68.9373 140.595 69.1406 140.459C69.3439 140.324 69.5831 140.252 69.8274 140.253C69.9853 140.251 70.1421 140.28 70.2888 140.339C70.4354 140.398 70.5691 140.484 70.6822 140.595C70.7953 140.705 70.8856 140.836 70.9478 140.982C71.0101 141.127 71.0432 141.283 71.0452 141.441Z" fill="white"/>
<path d="M69.1227 142.107C69.2565 142.248 69.4293 142.345 69.6189 142.387C69.8084 142.428 70.0061 142.412 70.1865 142.34C70.3669 142.269 70.5217 142.145 70.6311 141.984C70.7404 141.824 70.7993 141.635 70.8001 141.441C70.7993 141.213 70.7117 140.993 70.555 140.828C70.0506 141.223 69.5722 141.65 69.1227 142.107Z" fill="#263238"/>
<path d="M75.817 141.441C75.8231 141.683 75.7569 141.921 75.6268 142.125C75.4968 142.33 75.3088 142.49 75.0868 142.587C74.8649 142.684 74.6191 142.713 74.3809 142.669C74.1427 142.626 73.9228 142.512 73.7494 142.343C73.576 142.174 73.457 141.957 73.4075 141.72C73.3579 141.483 73.3802 141.237 73.4714 141.013C73.5626 140.788 73.7186 140.596 73.9195 140.461C74.1204 140.326 74.357 140.253 74.5992 140.253C74.7571 140.251 74.9139 140.28 75.0605 140.339C75.2072 140.398 75.3409 140.484 75.454 140.595C75.5671 140.705 75.6574 140.836 75.7196 140.982C75.7819 141.127 75.815 141.283 75.817 141.441Z" fill="white"/>
<path d="M73.8945 142.107C74.0294 142.246 74.2026 142.343 74.3922 142.384C74.5819 142.425 74.7794 142.408 74.9598 142.337C75.1403 142.266 75.2954 142.143 75.4058 141.983C75.5161 141.823 75.5766 141.635 75.5796 141.441C75.5751 141.213 75.488 140.995 75.3345 140.828C74.8261 141.221 74.345 141.648 73.8945 142.107Z" fill="#263238"/>
<path d="M80.5888 141.441C80.5949 141.683 80.5287 141.921 80.3986 142.125C80.2686 142.33 80.0806 142.49 79.8587 142.587C79.6367 142.684 79.391 142.713 79.1527 142.669C78.9145 142.626 78.6947 142.512 78.5213 142.343C78.3479 142.174 78.2288 141.957 78.1793 141.72C78.1297 141.483 78.152 141.237 78.2432 141.013C78.3344 140.788 78.4904 140.596 78.6913 140.461C78.8922 140.326 79.1288 140.253 79.371 140.253C79.5289 140.251 79.6857 140.28 79.8323 140.339C79.979 140.398 80.1127 140.484 80.2258 140.595C80.3389 140.705 80.4292 140.836 80.4915 140.982C80.5537 141.127 80.5868 141.283 80.5888 141.441Z" fill="white"/>
<path d="M78.6433 142.107C78.735 142.201 78.8446 142.276 78.9656 142.327C79.0866 142.379 79.2166 142.405 79.348 142.406C79.4757 142.407 79.6024 142.383 79.7208 142.335C79.8392 142.287 79.9471 142.216 80.0381 142.126C80.1291 142.037 80.2016 141.93 80.2514 141.812C80.3013 141.695 80.3274 141.568 80.3284 141.441C80.324 141.213 80.2368 140.995 80.0833 140.828C79.5765 141.223 79.0956 141.65 78.6433 142.107Z" fill="#263238"/>
<path d="M85.3606 141.441C85.3667 141.683 85.3005 141.921 85.1704 142.125C85.0404 142.33 84.8524 142.49 84.6305 142.587C84.4085 142.684 84.1627 142.713 83.9245 142.669C83.6863 142.626 83.4665 142.512 83.2931 142.343C83.1197 142.174 83.0006 141.957 82.9511 141.72C82.9015 141.483 82.9238 141.237 83.015 141.013C83.1062 140.788 83.2622 140.596 83.4631 140.461C83.664 140.326 83.9006 140.253 84.1428 140.253C84.3007 140.251 84.4575 140.28 84.6041 140.339C84.7508 140.398 84.8845 140.484 84.9976 140.595C85.1107 140.705 85.201 140.836 85.2633 140.982C85.3255 141.127 85.3586 141.283 85.3606 141.441Z" fill="white"/>
<path d="M83.4458 142.107C83.5355 142.202 83.6436 142.277 83.7634 142.328C83.8833 142.38 84.0124 142.406 84.1428 142.406C84.2705 142.407 84.3972 142.383 84.5156 142.335C84.634 142.287 84.7418 142.216 84.8329 142.126C84.9239 142.037 84.9964 141.93 85.0462 141.812C85.096 141.695 85.1222 141.568 85.1232 141.441C85.1187 141.213 85.0316 140.995 84.8781 140.828C84.3721 141.221 83.8935 141.648 83.4458 142.107Z" fill="#263238"/>
<path d="M90.1324 141.441C90.1401 141.684 90.0747 141.925 89.9448 142.132C89.8148 142.338 89.6262 142.501 89.4031 142.6C89.1799 142.698 88.9324 142.728 88.6922 142.685C88.452 142.642 88.2301 142.529 88.0548 142.359C87.8796 142.189 87.759 141.971 87.7085 141.732C87.6581 141.494 87.68 141.245 87.7715 141.019C87.863 140.793 88.02 140.599 88.2223 140.463C88.4246 140.326 88.6629 140.254 88.9069 140.253C89.2266 140.249 89.5349 140.372 89.7645 140.594C89.9941 140.817 90.1264 141.121 90.1324 141.441Z" fill="white"/>
<path d="M88.2176 142.107C88.3073 142.202 88.4154 142.277 88.5353 142.328C88.6551 142.38 88.7842 142.406 88.9146 142.406C89.0423 142.407 89.169 142.383 89.2874 142.335C89.4058 142.287 89.5136 142.216 89.6047 142.126C89.6957 142.037 89.7682 141.93 89.818 141.812C89.8678 141.695 89.894 141.568 89.895 141.441C89.8905 141.213 89.8034 140.995 89.6499 140.828C89.1455 141.223 88.6671 141.65 88.2176 142.107Z" fill="#263238"/>
<path d="M94.9119 141.441C94.918 141.683 94.8518 141.921 94.7217 142.125C94.5917 142.33 94.4037 142.49 94.1817 142.587C93.9598 142.684 93.714 142.713 93.4758 142.669C93.2376 142.626 93.0177 142.512 92.8443 142.343C92.6709 142.174 92.5519 141.957 92.5023 141.72C92.4528 141.483 92.4751 141.237 92.5663 141.013C92.6575 140.788 92.8135 140.596 93.0144 140.461C93.2153 140.326 93.4519 140.253 93.6941 140.253C93.852 140.251 94.0088 140.28 94.1554 140.339C94.3021 140.398 94.4358 140.484 94.5489 140.595C94.662 140.705 94.7522 140.836 94.8145 140.982C94.8768 141.127 94.9099 141.283 94.9119 141.441Z" fill="white"/>
<path d="M92.9894 142.107C93.1232 142.248 93.296 142.345 93.4856 142.387C93.6751 142.428 93.8728 142.412 94.0532 142.34C94.2336 142.269 94.3884 142.145 94.4977 141.984C94.6071 141.824 94.666 141.635 94.6668 141.441C94.666 141.213 94.5784 140.993 94.4217 140.828C93.9173 141.223 93.4389 141.65 92.9894 142.107Z" fill="#263238"/>
<path d="M99.6837 141.441C99.6898 141.683 99.6236 141.921 99.4935 142.125C99.3635 142.33 99.1755 142.49 98.9535 142.587C98.7316 142.684 98.4858 142.713 98.2476 142.669C98.0094 142.626 97.7895 142.512 97.6161 142.343C97.4427 142.174 97.3237 141.957 97.2742 141.72C97.2246 141.483 97.2469 141.237 97.3381 141.013C97.4293 140.788 97.5853 140.596 97.7862 140.461C97.9871 140.326 98.2237 140.253 98.4659 140.253C98.6238 140.251 98.7806 140.28 98.9272 140.339C99.0739 140.398 99.2076 140.484 99.3207 140.595C99.4338 140.705 99.524 140.836 99.5863 140.982C99.6486 141.127 99.6817 141.283 99.6837 141.441Z" fill="white"/>
<path d="M97.7918 142.107C97.9267 142.246 98.0999 142.343 98.2896 142.384C98.4792 142.425 98.6767 142.408 98.8572 142.337C99.0376 142.266 99.1928 142.143 99.3031 141.983C99.4134 141.823 99.4739 141.635 99.4769 141.441C99.4725 141.213 99.3853 140.995 99.2318 140.828C98.7251 141.223 98.2441 141.65 97.7918 142.107Z" fill="#263238"/>
<path d="M104.456 141.441C104.462 141.683 104.395 141.921 104.265 142.125C104.135 142.33 103.947 142.49 103.725 142.587C103.503 142.684 103.258 142.713 103.019 142.669C102.781 142.626 102.561 142.512 102.388 142.343C102.215 142.174 102.095 141.957 102.046 141.72C101.996 141.483 102.019 141.237 102.11 141.013C102.201 140.788 102.357 140.596 102.558 140.461C102.759 140.326 102.996 140.253 103.238 140.253C103.396 140.251 103.552 140.28 103.699 140.339C103.846 140.398 103.979 140.484 104.093 140.595C104.206 140.705 104.296 140.836 104.358 140.982C104.42 141.127 104.454 141.283 104.456 141.441Z" fill="white"/>
<path d="M102.533 142.107C102.625 142.201 102.734 142.276 102.855 142.327C102.976 142.379 103.106 142.405 103.238 142.406C103.365 142.407 103.492 142.383 103.611 142.335C103.729 142.287 103.837 142.216 103.928 142.126C104.019 142.037 104.091 141.93 104.141 141.812C104.191 141.695 104.217 141.568 104.218 141.441C104.214 141.213 104.126 140.995 103.973 140.828C103.466 141.223 102.985 141.65 102.533 142.107Z" fill="#263238"/>
<path d="M109.227 141.441C109.233 141.683 109.167 141.921 109.037 142.125C108.907 142.33 108.719 142.49 108.497 142.587C108.275 142.684 108.029 142.713 107.791 142.669C107.553 142.626 107.333 142.512 107.16 142.343C106.986 142.174 106.867 141.957 106.818 141.72C106.768 141.483 106.791 141.237 106.882 141.013C106.973 140.788 107.129 140.596 107.33 140.461C107.531 140.326 107.767 140.253 108.009 140.253C108.167 140.251 108.324 140.28 108.471 140.339C108.618 140.398 108.751 140.484 108.864 140.595C108.977 140.705 109.068 140.836 109.13 140.982C109.192 141.127 109.225 141.283 109.227 141.441Z" fill="white"/>
<path d="M107.312 142.107C107.402 142.202 107.51 142.277 107.63 142.328C107.75 142.38 107.879 142.406 108.009 142.406C108.137 142.407 108.264 142.383 108.382 142.335C108.501 142.287 108.609 142.216 108.7 142.126C108.791 142.037 108.863 141.93 108.913 141.812C108.963 141.695 108.989 141.568 108.99 141.441C108.985 141.213 108.898 140.995 108.745 140.828C108.24 141.223 107.762 141.65 107.312 142.107Z" fill="#263238"/>
<path d="M114.007 141.441C114.014 141.685 113.949 141.926 113.819 142.132C113.688 142.339 113.499 142.502 113.276 142.601C113.052 142.699 112.804 142.728 112.564 142.685C112.323 142.641 112.101 142.527 111.926 142.356C111.752 142.186 111.632 141.967 111.582 141.728C111.532 141.488 111.555 141.24 111.648 141.014C111.741 140.788 111.899 140.595 112.102 140.459C112.305 140.324 112.545 140.252 112.789 140.253C112.947 140.251 113.104 140.28 113.25 140.339C113.397 140.398 113.531 140.484 113.644 140.595C113.757 140.705 113.847 140.836 113.909 140.982C113.972 141.127 114.005 141.283 114.007 141.441Z" fill="white"/>
<path d="M112.084 142.107C112.218 142.248 112.391 142.345 112.58 142.387C112.77 142.428 112.968 142.412 113.148 142.34C113.328 142.269 113.483 142.145 113.593 141.984C113.702 141.824 113.761 141.635 113.762 141.441C113.761 141.213 113.673 140.993 113.517 140.828C113.012 141.223 112.534 141.65 112.084 142.107Z" fill="#263238"/>
<path d="M118.779 141.441C118.785 141.683 118.718 141.921 118.588 142.125C118.458 142.33 118.27 142.49 118.048 142.587C117.827 142.684 117.581 142.713 117.343 142.669C117.104 142.626 116.884 142.512 116.711 142.343C116.538 142.174 116.419 141.957 116.369 141.72C116.32 141.483 116.342 141.237 116.433 141.013C116.524 140.788 116.68 140.596 116.881 140.461C117.082 140.326 117.319 140.253 117.561 140.253C117.719 140.251 117.875 140.28 118.022 140.339C118.169 140.398 118.303 140.484 118.416 140.595C118.529 140.705 118.619 140.836 118.681 140.982C118.744 141.127 118.777 141.283 118.779 141.441Z" fill="white"/>
<path d="M116.856 142.107C116.991 142.246 117.164 142.343 117.354 142.384C117.543 142.425 117.741 142.408 117.921 142.337C118.102 142.266 118.257 142.143 118.367 141.983C118.478 141.823 118.538 141.635 118.541 141.441C118.537 141.213 118.45 140.995 118.296 140.828C117.788 141.221 117.307 141.648 116.856 142.107Z" fill="#263238"/>
<path d="M123.55 141.441C123.556 141.683 123.49 141.921 123.36 142.125C123.23 142.33 123.042 142.49 122.82 142.587C122.598 142.684 122.353 142.713 122.114 142.669C121.876 142.626 121.656 142.512 121.483 142.343C121.309 142.174 121.19 141.957 121.141 141.72C121.091 141.483 121.114 141.237 121.205 141.013C121.296 140.788 121.452 140.596 121.653 140.461C121.854 140.326 122.09 140.253 122.333 140.253C122.49 140.251 122.647 140.28 122.794 140.339C122.941 140.398 123.074 140.484 123.187 140.595C123.3 140.705 123.391 140.836 123.453 140.982C123.515 141.127 123.548 141.283 123.55 141.441Z" fill="white"/>
<path d="M121.628 142.107C121.72 142.201 121.829 142.276 121.95 142.327C122.071 142.379 122.201 142.405 122.333 142.406C122.46 142.407 122.587 142.383 122.705 142.335C122.824 142.287 122.932 142.216 123.023 142.126C123.114 142.037 123.186 141.93 123.236 141.812C123.286 141.695 123.312 141.568 123.313 141.441C123.309 141.213 123.221 140.995 123.068 140.828C122.561 141.223 122.08 141.65 121.628 142.107Z" fill="#263238"/>
<path d="M176.439 133.85C176.443 134.092 176.376 134.33 176.245 134.533C176.114 134.736 175.925 134.896 175.703 134.992C175.481 135.087 175.235 135.115 174.998 135.07C174.76 135.026 174.541 134.912 174.368 134.742C174.195 134.573 174.077 134.356 174.028 134.119C173.979 133.882 174.002 133.636 174.094 133.413C174.185 133.189 174.341 132.997 174.542 132.862C174.743 132.727 174.979 132.655 175.221 132.655C175.379 132.653 175.537 132.683 175.684 132.742C175.831 132.801 175.965 132.888 176.078 132.999C176.191 133.11 176.282 133.243 176.343 133.389C176.405 133.535 176.438 133.692 176.439 133.85Z" fill="white"/>
<path d="M174.524 134.509C174.657 134.649 174.829 134.746 175.018 134.788C175.207 134.83 175.404 134.815 175.584 134.744C175.764 134.673 175.919 134.55 176.029 134.391C176.139 134.232 176.199 134.044 176.201 133.85C176.199 133.62 176.111 133.399 175.956 133.23C175.452 133.625 174.973 134.052 174.524 134.509Z" fill="#263238"/>
<path d="M181.218 133.85C181.224 134.094 181.157 134.334 181.026 134.54C180.895 134.746 180.705 134.907 180.481 135.005C180.258 135.102 180.01 135.13 179.77 135.086C179.53 135.041 179.309 134.926 179.135 134.756C178.96 134.585 178.841 134.366 178.792 134.127C178.743 133.888 178.767 133.639 178.86 133.414C178.953 133.188 179.111 132.996 179.314 132.86C179.517 132.725 179.756 132.654 180 132.655C180.159 132.653 180.316 132.683 180.463 132.742C180.61 132.801 180.745 132.888 180.858 132.999C180.971 133.11 181.061 133.243 181.123 133.389C181.185 133.535 181.217 133.692 181.218 133.85Z" fill="white"/>
<path d="M179.296 134.509C179.429 134.649 179.601 134.746 179.79 134.788C179.979 134.83 180.176 134.815 180.356 134.744C180.536 134.673 180.691 134.55 180.801 134.391C180.911 134.232 180.971 134.044 180.973 133.85C180.973 133.62 180.886 133.398 180.728 133.23C180.223 133.625 179.745 134.052 179.296 134.509Z" fill="#263238"/>
<path d="M185.99 133.85C185.994 134.092 185.927 134.33 185.796 134.533C185.665 134.736 185.476 134.896 185.254 134.992C185.032 135.087 184.787 135.115 184.549 135.07C184.311 135.026 184.092 134.912 183.919 134.742C183.747 134.573 183.628 134.356 183.579 134.119C183.531 133.882 183.553 133.636 183.645 133.413C183.736 133.189 183.892 132.997 184.093 132.862C184.294 132.727 184.53 132.655 184.772 132.655C184.931 132.653 185.088 132.683 185.235 132.742C185.382 132.801 185.516 132.888 185.629 132.999C185.743 133.11 185.833 133.243 185.895 133.389C185.956 133.535 185.989 133.692 185.99 133.85Z" fill="white"/>
<path d="M184.067 134.509C184.202 134.648 184.374 134.744 184.563 134.785C184.752 134.827 184.949 134.811 185.129 134.741C185.309 134.67 185.465 134.548 185.575 134.39C185.686 134.231 185.748 134.044 185.752 133.85C185.75 133.62 185.663 133.399 185.507 133.23C184.999 133.623 184.518 134.05 184.067 134.509Z" fill="#263238"/>
<path d="M190.762 133.85C190.766 134.092 190.699 134.33 190.568 134.533C190.437 134.736 190.248 134.896 190.026 134.992C189.804 135.087 189.558 135.115 189.321 135.07C189.083 135.026 188.864 134.912 188.691 134.742C188.518 134.573 188.4 134.356 188.351 134.119C188.302 133.882 188.325 133.636 188.417 133.413C188.508 133.189 188.664 132.997 188.865 132.862C189.066 132.727 189.302 132.655 189.544 132.655C189.702 132.653 189.86 132.683 190.007 132.742C190.154 132.801 190.288 132.888 190.401 132.999C190.515 133.11 190.605 133.243 190.666 133.389C190.728 133.535 190.761 133.692 190.762 133.85Z" fill="white"/>
<path d="M188.839 134.509C188.931 134.603 189.04 134.678 189.161 134.729C189.282 134.781 189.412 134.807 189.544 134.808C189.671 134.81 189.798 134.786 189.916 134.739C190.034 134.692 190.142 134.622 190.233 134.533C190.325 134.444 190.397 134.338 190.447 134.221C190.497 134.103 190.523 133.978 190.524 133.85C190.522 133.62 190.434 133.399 190.279 133.23C189.772 133.625 189.291 134.052 188.839 134.509Z" fill="#263238"/>
<path d="M195.533 133.85C195.538 134.092 195.47 134.33 195.339 134.533C195.208 134.736 195.02 134.896 194.798 134.992C194.576 135.087 194.33 135.115 194.092 135.07C193.855 135.026 193.636 134.912 193.463 134.742C193.29 134.573 193.172 134.356 193.123 134.119C193.074 133.882 193.097 133.636 193.188 133.413C193.28 133.189 193.436 132.997 193.637 132.862C193.837 132.727 194.074 132.655 194.316 132.655C194.474 132.653 194.632 132.683 194.779 132.742C194.926 132.801 195.06 132.888 195.173 132.999C195.286 133.11 195.376 133.243 195.438 133.389C195.5 133.535 195.532 133.692 195.533 133.85Z" fill="white"/>
<path d="M193.619 134.509C193.752 134.649 193.924 134.746 194.113 134.788C194.302 134.83 194.499 134.815 194.679 134.744C194.859 134.673 195.014 134.55 195.124 134.391C195.234 134.232 195.294 134.044 195.296 133.85C195.293 133.62 195.206 133.399 195.051 133.23C194.545 133.623 194.066 134.05 193.619 134.509Z" fill="#263238"/>
<path d="M200.313 133.85C200.319 134.094 200.252 134.334 200.121 134.539C199.991 134.745 199.801 134.907 199.578 135.004C199.355 135.101 199.107 135.13 198.868 135.086C198.628 135.043 198.407 134.928 198.232 134.758C198.058 134.588 197.938 134.37 197.888 134.131C197.838 133.893 197.861 133.645 197.953 133.419C198.044 133.193 198.201 133 198.403 132.864C198.606 132.728 198.844 132.655 199.087 132.655C199.246 132.653 199.404 132.683 199.552 132.742C199.699 132.8 199.834 132.888 199.948 132.999C200.061 133.11 200.152 133.242 200.215 133.388C200.278 133.534 200.311 133.691 200.313 133.85Z" fill="white"/>
<path d="M198.39 134.509C198.524 134.649 198.696 134.746 198.885 134.788C199.074 134.83 199.271 134.815 199.451 134.744C199.631 134.673 199.786 134.55 199.896 134.391C200.005 134.232 200.065 134.044 200.068 133.85C200.065 133.62 199.978 133.399 199.823 133.23C199.318 133.625 198.84 134.052 198.39 134.509Z" fill="#263238"/>
<path d="M205.085 133.85C205.091 134.094 205.024 134.334 204.893 134.54C204.761 134.746 204.572 134.907 204.348 135.005C204.124 135.102 203.877 135.13 203.637 135.086C203.397 135.041 203.175 134.926 203.001 134.756C202.827 134.585 202.708 134.366 202.659 134.127C202.61 133.888 202.634 133.639 202.727 133.414C202.819 133.188 202.978 132.996 203.181 132.86C203.384 132.725 203.623 132.654 203.867 132.655C204.025 132.653 204.183 132.683 204.33 132.742C204.477 132.801 204.611 132.888 204.724 132.999C204.838 133.11 204.928 133.243 204.99 133.389C205.051 133.535 205.084 133.692 205.085 133.85Z" fill="white"/>
<path d="M203.162 134.509C203.296 134.649 203.468 134.746 203.657 134.788C203.845 134.83 204.042 134.815 204.223 134.744C204.403 134.673 204.557 134.55 204.667 134.391C204.777 134.232 204.837 134.044 204.84 133.85C204.84 133.62 204.752 133.398 204.595 133.23C204.09 133.625 203.612 134.052 203.162 134.509Z" fill="#263238"/>
<path d="M209.857 133.85C209.861 134.092 209.794 134.33 209.663 134.533C209.532 134.736 209.343 134.896 209.121 134.992C208.899 135.087 208.653 135.115 208.415 135.07C208.178 135.026 207.959 134.912 207.786 134.742C207.613 134.573 207.495 134.356 207.446 134.119C207.397 133.882 207.42 133.636 207.512 133.413C207.603 133.189 207.759 132.997 207.96 132.862C208.16 132.727 208.397 132.655 208.639 132.655C208.797 132.653 208.955 132.683 209.102 132.742C209.249 132.801 209.383 132.888 209.496 132.999C209.609 133.11 209.699 133.243 209.761 133.389C209.823 133.535 209.856 133.692 209.857 133.85Z" fill="white"/>
<path d="M207.934 134.509C208.068 134.648 208.241 134.744 208.43 134.785C208.619 134.827 208.816 134.811 208.996 134.741C209.176 134.67 209.331 134.548 209.442 134.39C209.553 134.231 209.615 134.044 209.619 133.85C209.616 133.62 209.529 133.399 209.374 133.23C208.866 133.623 208.384 134.05 207.934 134.509Z" fill="#263238"/>
<path d="M214.628 133.85C214.633 134.092 214.565 134.33 214.434 134.533C214.303 134.736 214.115 134.896 213.893 134.992C213.671 135.087 213.425 135.115 213.187 135.07C212.95 135.026 212.73 134.912 212.558 134.742C212.385 134.573 212.267 134.356 212.218 134.119C212.169 133.882 212.192 133.636 212.283 133.413C212.375 133.189 212.531 132.997 212.732 132.862C212.932 132.727 213.169 132.655 213.411 132.655C213.569 132.653 213.726 132.683 213.874 132.742C214.021 132.801 214.155 132.888 214.268 132.999C214.381 133.11 214.471 133.243 214.533 133.389C214.595 133.535 214.627 133.692 214.628 133.85Z" fill="white"/>
<path d="M212.683 134.509C212.775 134.603 212.884 134.678 213.005 134.729C213.126 134.781 213.256 134.807 213.388 134.808C213.515 134.81 213.641 134.786 213.76 134.739C213.878 134.692 213.986 134.622 214.077 134.533C214.168 134.444 214.241 134.338 214.291 134.221C214.341 134.103 214.367 133.978 214.368 133.85C214.365 133.62 214.278 133.399 214.123 133.23C213.616 133.625 213.135 134.052 212.683 134.509Z" fill="#263238"/>
<path d="M219.4 133.85C219.405 134.092 219.337 134.33 219.206 134.533C219.075 134.736 218.887 134.896 218.664 134.992C218.442 135.087 218.197 135.115 217.959 135.07C217.721 135.026 217.502 134.912 217.33 134.742C217.157 134.573 217.039 134.356 216.99 134.119C216.941 133.882 216.964 133.636 217.055 133.413C217.147 133.189 217.303 132.997 217.503 132.862C217.704 132.727 217.94 132.655 218.182 132.655C218.341 132.653 218.498 132.683 218.645 132.742C218.793 132.801 218.927 132.888 219.04 132.999C219.153 133.11 219.243 133.243 219.305 133.389C219.367 133.535 219.399 133.692 219.4 133.85Z" fill="white"/>
<path d="M217.485 134.509C217.619 134.649 217.791 134.746 217.98 134.788C218.168 134.83 218.366 134.815 218.546 134.744C218.726 134.673 218.881 134.55 218.99 134.391C219.1 134.232 219.16 134.044 219.163 133.85C219.16 133.62 219.073 133.399 218.918 133.23C218.412 133.623 217.933 134.05 217.485 134.509Z" fill="#263238"/>
<path d="M224.172 133.85C224.178 134.094 224.111 134.334 223.98 134.539C223.85 134.745 223.66 134.907 223.437 135.004C223.214 135.101 222.966 135.13 222.727 135.086C222.487 135.043 222.266 134.928 222.091 134.758C221.917 134.588 221.797 134.37 221.747 134.131C221.697 133.893 221.72 133.645 221.812 133.419C221.903 133.193 222.06 133 222.263 132.864C222.465 132.728 222.703 132.655 222.946 132.655C223.105 132.653 223.263 132.683 223.411 132.742C223.558 132.8 223.693 132.888 223.807 132.999C223.921 133.11 224.011 133.242 224.074 133.388C224.137 133.534 224.17 133.691 224.172 133.85Z" fill="white"/>
<path d="M222.257 134.509C222.39 134.649 222.563 134.746 222.751 134.788C222.94 134.83 223.137 134.815 223.317 134.744C223.497 134.673 223.652 134.55 223.762 134.391C223.872 134.232 223.932 134.044 223.935 133.85C223.932 133.62 223.845 133.399 223.689 133.23C223.185 133.625 222.707 134.052 222.257 134.509Z" fill="#263238"/>
<path d="M228.951 133.85C228.956 134.092 228.888 134.33 228.757 134.533C228.626 134.736 228.438 134.896 228.216 134.992C227.994 135.087 227.748 135.115 227.51 135.07C227.273 135.026 227.053 134.912 226.881 134.742C226.708 134.573 226.59 134.356 226.541 134.119C226.492 133.882 226.515 133.636 226.606 133.413C226.698 133.189 226.854 132.997 227.055 132.862C227.255 132.727 227.492 132.655 227.734 132.655C227.892 132.653 228.05 132.683 228.197 132.742C228.344 132.801 228.478 132.888 228.591 132.999C228.704 133.11 228.794 133.243 228.856 133.389C228.918 133.535 228.95 133.692 228.951 133.85Z" fill="white"/>
<path d="M227.029 134.509C227.12 134.603 227.23 134.679 227.351 134.73C227.472 134.781 227.602 134.808 227.734 134.808C227.86 134.809 227.986 134.785 228.103 134.737C228.221 134.689 228.328 134.619 228.418 134.53C228.509 134.441 228.58 134.336 228.63 134.219C228.679 134.102 228.705 133.977 228.706 133.85C228.707 133.62 228.619 133.398 228.461 133.23C227.957 133.625 227.478 134.052 227.029 134.509Z" fill="#263238"/>
<path d="M233.723 133.85C233.728 134.092 233.66 134.33 233.529 134.533C233.398 134.736 233.21 134.896 232.988 134.992C232.765 135.087 232.52 135.115 232.282 135.07C232.044 135.026 231.825 134.912 231.653 134.742C231.48 134.573 231.362 134.356 231.313 134.119C231.264 133.882 231.287 133.636 231.378 133.413C231.47 133.189 231.626 132.997 231.826 132.862C232.027 132.727 232.264 132.655 232.505 132.655C232.664 132.653 232.821 132.683 232.968 132.742C233.116 132.801 233.25 132.888 233.363 132.999C233.476 133.11 233.566 133.243 233.628 133.389C233.69 133.535 233.722 133.692 233.723 133.85Z" fill="white"/>
<path d="M231.831 134.509C231.966 134.648 232.138 134.744 232.327 134.785C232.516 134.827 232.713 134.811 232.893 134.741C233.073 134.67 233.229 134.548 233.339 134.39C233.45 134.231 233.512 134.044 233.516 133.85C233.514 133.62 233.427 133.399 233.271 133.23C232.765 133.625 232.284 134.052 231.831 134.509Z" fill="#263238"/>
<path d="M238.495 133.85C238.5 134.092 238.432 134.33 238.301 134.533C238.17 134.736 237.981 134.896 237.759 134.992C237.537 135.087 237.292 135.115 237.054 135.07C236.816 135.026 236.597 134.912 236.424 134.742C236.252 134.573 236.134 134.356 236.085 134.119C236.036 133.882 236.059 133.636 236.15 133.413C236.241 133.189 236.398 132.997 236.598 132.862C236.799 132.727 237.035 132.655 237.277 132.655C237.436 132.653 237.593 132.683 237.74 132.742C237.887 132.801 238.021 132.888 238.135 132.999C238.248 133.11 238.338 133.243 238.4 133.389C238.462 133.535 238.494 133.692 238.495 133.85Z" fill="white"/>
<path d="M236.573 134.509C236.664 134.603 236.774 134.678 236.895 134.729C237.016 134.781 237.146 134.807 237.277 134.808C237.405 134.81 237.531 134.786 237.649 134.739C237.768 134.692 237.876 134.622 237.967 134.533C238.058 134.444 238.131 134.338 238.18 134.221C238.23 134.103 238.257 133.978 238.258 133.85C238.255 133.62 238.168 133.399 238.012 133.23C237.506 133.625 237.025 134.052 236.573 134.509Z" fill="#263238"/>
<path d="M176.439 141.441C176.445 141.683 176.378 141.921 176.248 142.125C176.118 142.33 175.93 142.49 175.708 142.587C175.486 142.684 175.241 142.713 175.002 142.669C174.764 142.626 174.544 142.512 174.371 142.343C174.198 142.174 174.079 141.957 174.029 141.72C173.979 141.483 174.002 141.237 174.093 141.013C174.184 140.788 174.34 140.596 174.541 140.461C174.742 140.326 174.979 140.253 175.221 140.253C175.379 140.251 175.535 140.28 175.682 140.339C175.829 140.398 175.962 140.484 176.076 140.595C176.189 140.705 176.279 140.836 176.341 140.982C176.403 141.127 176.437 141.283 176.439 141.441Z" fill="white"/>
<path d="M174.524 142.107C174.613 142.202 174.722 142.277 174.841 142.328C174.961 142.38 175.09 142.406 175.221 142.406C175.348 142.407 175.475 142.383 175.594 142.335C175.712 142.287 175.82 142.216 175.911 142.126C176.002 142.037 176.074 141.93 176.124 141.812C176.174 141.695 176.2 141.568 176.201 141.441C176.197 141.213 176.11 140.995 175.956 140.828C175.452 141.223 174.973 141.65 174.524 142.107Z" fill="#263238"/>
<path d="M181.218 141.441C181.226 141.685 181.16 141.926 181.03 142.132C180.9 142.339 180.71 142.502 180.487 142.601C180.263 142.699 180.015 142.728 179.775 142.685C179.535 142.641 179.313 142.527 179.138 142.356C178.963 142.186 178.843 141.967 178.793 141.728C178.744 141.488 178.767 141.24 178.859 141.014C178.952 140.788 179.11 140.595 179.313 140.459C179.517 140.324 179.756 140.252 180 140.253C180.158 140.251 180.315 140.28 180.462 140.339C180.608 140.398 180.742 140.484 180.855 140.595C180.968 140.705 181.058 140.836 181.121 140.982C181.183 141.127 181.216 141.283 181.218 141.441Z" fill="white"/>
<path d="M179.296 142.107C179.429 142.248 179.602 142.345 179.792 142.387C179.981 142.428 180.179 142.412 180.359 142.34C180.54 142.269 180.695 142.145 180.804 141.984C180.913 141.824 180.972 141.635 180.973 141.441C180.972 141.213 180.884 140.993 180.728 140.828C180.223 141.223 179.745 141.65 179.296 142.107Z" fill="#263238"/>
<path d="M185.99 141.441C185.996 141.683 185.93 141.921 185.8 142.125C185.67 142.33 185.482 142.49 185.26 142.587C185.038 142.684 184.792 142.713 184.554 142.669C184.316 142.626 184.096 142.512 183.922 142.343C183.749 142.174 183.63 141.957 183.58 141.72C183.531 141.483 183.553 141.237 183.644 141.013C183.735 140.788 183.891 140.596 184.092 140.461C184.293 140.326 184.53 140.253 184.772 140.253C184.93 140.251 185.087 140.28 185.233 140.339C185.38 140.398 185.514 140.484 185.627 140.595C185.74 140.705 185.83 140.836 185.892 140.982C185.955 141.127 185.988 141.283 185.99 141.441Z" fill="white"/>
<path d="M184.067 142.107C184.202 142.246 184.375 142.343 184.565 142.384C184.755 142.425 184.952 142.408 185.133 142.337C185.313 142.266 185.468 142.143 185.579 141.983C185.689 141.823 185.749 141.635 185.752 141.441C185.748 141.213 185.661 140.995 185.507 140.828C184.999 141.221 184.518 141.648 184.067 142.107Z" fill="#263238"/>
<path d="M190.762 141.441C190.768 141.683 190.702 141.921 190.571 142.125C190.441 142.33 190.253 142.49 190.031 142.587C189.81 142.684 189.564 142.713 189.326 142.669C189.087 142.626 188.867 142.512 188.694 142.343C188.521 142.174 188.402 141.957 188.352 141.72C188.303 141.483 188.325 141.237 188.416 141.013C188.507 140.788 188.663 140.596 188.864 140.461C189.065 140.326 189.302 140.253 189.544 140.253C189.702 140.251 189.858 140.28 190.005 140.339C190.152 140.398 190.286 140.484 190.399 140.595C190.512 140.705 190.602 140.836 190.664 140.982C190.727 141.127 190.76 141.283 190.762 141.441Z" fill="white"/>
<path d="M188.839 142.107C188.931 142.201 189.04 142.276 189.161 142.327C189.282 142.379 189.412 142.405 189.544 142.406C189.672 142.407 189.798 142.383 189.917 142.335C190.035 142.287 190.143 142.216 190.234 142.126C190.325 142.037 190.397 141.93 190.447 141.812C190.497 141.695 190.523 141.568 190.524 141.441C190.52 141.213 190.433 140.995 190.279 140.828C189.772 141.223 189.291 141.65 188.839 142.107Z" fill="#263238"/>
<path d="M195.533 141.441C195.54 141.683 195.473 141.921 195.343 142.125C195.213 142.33 195.025 142.49 194.803 142.587C194.581 142.684 194.336 142.713 194.097 142.669C193.859 142.626 193.639 142.512 193.466 142.343C193.292 142.174 193.173 141.957 193.124 141.72C193.074 141.483 193.097 141.237 193.188 141.013C193.279 140.788 193.435 140.596 193.636 140.461C193.837 140.326 194.073 140.253 194.316 140.253C194.474 140.251 194.63 140.28 194.777 140.339C194.924 140.398 195.057 140.484 195.17 140.595C195.284 140.705 195.374 140.836 195.436 140.982C195.498 141.127 195.531 141.283 195.533 141.441Z" fill="white"/>
<path d="M193.619 142.107C193.708 142.202 193.816 142.277 193.936 142.328C194.056 142.38 194.185 142.406 194.316 142.406C194.443 142.407 194.57 142.383 194.688 142.335C194.807 142.287 194.915 142.216 195.006 142.126C195.097 142.037 195.169 141.93 195.219 141.812C195.269 141.695 195.295 141.568 195.296 141.441C195.292 141.213 195.204 140.995 195.051 140.828C194.545 141.221 194.066 141.648 193.619 142.107Z" fill="#263238"/>
<path d="M200.313 141.441C200.321 141.684 200.255 141.925 200.125 142.132C199.995 142.338 199.807 142.501 199.584 142.6C199.36 142.698 199.113 142.728 198.873 142.685C198.632 142.642 198.411 142.529 198.235 142.359C198.06 142.189 197.94 141.971 197.889 141.732C197.839 141.494 197.86 141.245 197.952 141.019C198.044 140.793 198.2 140.599 198.403 140.463C198.605 140.326 198.843 140.254 199.087 140.253C199.407 140.249 199.715 140.372 199.945 140.594C200.175 140.817 200.307 141.121 200.313 141.441Z" fill="white"/>
<path d="M198.39 142.107C198.48 142.202 198.588 142.277 198.708 142.328C198.828 142.38 198.957 142.406 199.087 142.406C199.215 142.407 199.342 142.383 199.46 142.335C199.579 142.287 199.686 142.216 199.777 142.126C199.869 142.037 199.941 141.93 199.991 141.812C200.041 141.695 200.067 141.568 200.068 141.441C200.063 141.213 199.976 140.995 199.823 140.828C199.318 141.223 198.84 141.65 198.39 142.107Z" fill="#263238"/>
<path d="M205.085 141.441C205.092 141.685 205.027 141.926 204.897 142.132C204.766 142.339 204.577 142.502 204.354 142.601C204.13 142.699 203.882 142.728 203.642 142.685C203.401 142.641 203.179 142.527 203.004 142.356C202.829 142.186 202.709 141.967 202.66 141.728C202.61 141.488 202.633 141.24 202.726 141.014C202.819 140.788 202.977 140.595 203.18 140.459C203.383 140.324 203.623 140.252 203.867 140.253C204.025 140.251 204.182 140.28 204.328 140.339C204.475 140.398 204.609 140.484 204.722 140.595C204.835 140.705 204.925 140.836 204.987 140.982C205.05 141.127 205.083 141.283 205.085 141.441Z" fill="white"/>
<path d="M203.162 142.107C203.296 142.248 203.469 142.345 203.658 142.387C203.848 142.428 204.046 142.412 204.226 142.34C204.406 142.269 204.561 142.145 204.671 141.984C204.78 141.824 204.839 141.635 204.84 141.441C204.839 141.213 204.751 140.993 204.595 140.828C204.09 141.223 203.612 141.65 203.162 142.107Z" fill="#263238"/>
<path d="M209.857 141.441C209.863 141.683 209.796 141.921 209.666 142.125C209.536 142.33 209.348 142.49 209.126 142.587C208.904 142.684 208.659 142.713 208.42 142.669C208.182 142.626 207.962 142.512 207.789 142.343C207.616 142.174 207.496 141.957 207.447 141.72C207.397 141.483 207.42 141.237 207.511 141.013C207.602 140.788 207.758 140.596 207.959 140.461C208.16 140.326 208.397 140.253 208.639 140.253C208.797 140.251 208.953 140.28 209.1 140.339C209.247 140.398 209.38 140.484 209.494 140.595C209.607 140.705 209.697 140.836 209.759 140.982C209.821 141.127 209.855 141.283 209.857 141.441Z" fill="white"/>
<path d="M207.934 142.107C208.069 142.246 208.242 142.343 208.432 142.384C208.621 142.425 208.819 142.408 208.999 142.337C209.18 142.266 209.335 142.143 209.445 141.983C209.556 141.823 209.616 141.635 209.619 141.441C209.615 141.213 209.527 140.995 209.374 140.828C208.866 141.221 208.384 141.648 207.934 142.107Z" fill="#263238"/>
<path d="M214.628 141.441C214.634 141.683 214.568 141.921 214.438 142.125C214.308 142.33 214.12 142.49 213.898 142.587C213.676 142.684 213.43 142.713 213.192 142.669C212.954 142.626 212.734 142.512 212.561 142.343C212.387 142.174 212.268 141.957 212.219 141.72C212.169 141.483 212.192 141.237 212.283 141.013C212.374 140.788 212.53 140.596 212.731 140.461C212.932 140.326 213.168 140.253 213.41 140.253C213.568 140.251 213.725 140.28 213.872 140.339C214.019 140.398 214.152 140.484 214.265 140.595C214.378 140.705 214.469 140.836 214.531 140.982C214.593 141.127 214.626 141.283 214.628 141.441Z" fill="white"/>
<path d="M212.683 142.107C212.775 142.201 212.884 142.276 213.005 142.327C213.126 142.379 213.256 142.405 213.388 142.406C213.515 142.407 213.642 142.383 213.76 142.335C213.879 142.287 213.987 142.216 214.078 142.126C214.169 142.037 214.241 141.93 214.291 141.812C214.341 141.695 214.367 141.568 214.368 141.441C214.363 141.213 214.276 140.995 214.123 140.828C213.616 141.223 213.135 141.65 212.683 142.107Z" fill="#263238"/>
<path d="M219.4 141.441C219.406 141.683 219.34 141.921 219.21 142.125C219.08 142.33 218.892 142.49 218.67 142.587C218.448 142.684 218.202 142.713 217.964 142.669C217.726 142.626 217.506 142.512 217.333 142.343C217.159 142.174 217.04 141.957 216.991 141.72C216.941 141.483 216.963 141.237 217.055 141.013C217.146 140.788 217.302 140.596 217.503 140.461C217.704 140.326 217.94 140.253 218.182 140.253C218.34 140.251 218.497 140.28 218.644 140.339C218.79 140.398 218.924 140.484 219.037 140.595C219.15 140.705 219.24 140.836 219.303 140.982C219.365 141.127 219.398 141.283 219.4 141.441Z" fill="white"/>
<path d="M217.485 142.107C217.575 142.202 217.683 142.277 217.803 142.328C217.923 142.38 218.052 142.406 218.182 142.406C218.31 142.407 218.437 142.383 218.555 142.335C218.674 142.287 218.781 142.216 218.872 142.126C218.963 142.037 219.036 141.93 219.086 141.812C219.136 141.695 219.162 141.568 219.163 141.441C219.158 141.213 219.071 140.995 218.918 140.828C218.412 141.221 217.933 141.648 217.485 142.107Z" fill="#263238"/>
<path d="M224.172 141.441C224.18 141.684 224.114 141.925 223.984 142.132C223.854 142.338 223.666 142.501 223.443 142.6C223.219 142.698 222.972 142.728 222.732 142.685C222.491 142.642 222.27 142.529 222.094 142.359C221.919 142.189 221.799 141.971 221.748 141.732C221.698 141.494 221.719 141.245 221.811 141.019C221.903 140.793 222.059 140.599 222.262 140.463C222.464 140.326 222.702 140.254 222.946 140.253C223.266 140.249 223.574 140.372 223.804 140.594C224.034 140.817 224.166 141.121 224.172 141.441Z" fill="white"/>
<path d="M222.257 142.107C222.347 142.202 222.455 142.277 222.575 142.328C222.695 142.38 222.824 142.406 222.954 142.406C223.082 142.407 223.209 142.383 223.327 142.335C223.445 142.287 223.553 142.216 223.644 142.126C223.735 142.037 223.808 141.93 223.858 141.812C223.907 141.695 223.934 141.568 223.935 141.441C223.93 141.213 223.843 140.995 223.689 140.828C223.185 141.223 222.707 141.65 222.257 142.107Z" fill="#263238"/>
<path d="M228.951 141.441C228.957 141.683 228.891 141.921 228.761 142.125C228.631 142.33 228.443 142.49 228.221 142.587C227.999 142.684 227.754 142.713 227.515 142.669C227.277 142.626 227.057 142.512 226.884 142.343C226.71 142.174 226.591 141.957 226.542 141.72C226.492 141.483 226.515 141.237 226.606 141.013C226.697 140.788 226.853 140.596 227.054 140.461C227.255 140.326 227.491 140.253 227.734 140.253C227.891 140.251 228.048 140.28 228.195 140.339C228.342 140.398 228.475 140.484 228.588 140.595C228.701 140.705 228.792 140.836 228.854 140.982C228.916 141.127 228.949 141.283 228.951 141.441Z" fill="white"/>
<path d="M227.029 142.107C227.163 142.248 227.335 142.345 227.525 142.387C227.715 142.428 227.912 142.412 228.093 142.34C228.273 142.269 228.428 142.145 228.537 141.984C228.647 141.824 228.705 141.635 228.706 141.441C228.706 141.213 228.618 140.993 228.461 140.828C227.957 141.223 227.478 141.65 227.029 142.107Z" fill="#263238"/>
<path d="M233.723 141.441C233.729 141.683 233.663 141.921 233.533 142.125C233.403 142.33 233.215 142.49 232.993 142.587C232.771 142.684 232.525 142.713 232.287 142.669C232.049 142.626 231.829 142.512 231.656 142.343C231.482 142.174 231.363 141.957 231.314 141.72C231.264 141.483 231.286 141.237 231.378 141.013C231.469 140.788 231.625 140.596 231.826 140.461C232.027 140.326 232.263 140.253 232.505 140.253C232.663 140.251 232.82 140.28 232.967 140.339C233.113 140.398 233.247 140.484 233.36 140.595C233.473 140.705 233.564 140.836 233.626 140.982C233.688 141.127 233.721 141.283 233.723 141.441Z" fill="white"/>
<path d="M231.831 142.107C231.966 142.246 232.139 142.343 232.329 142.384C232.519 142.425 232.716 142.408 232.897 142.337C233.077 142.266 233.232 142.143 233.343 141.983C233.453 141.823 233.513 141.635 233.516 141.441C233.512 141.213 233.425 140.995 233.271 140.828C232.765 141.223 232.284 141.65 231.831 142.107Z" fill="#263238"/>
<path d="M238.495 141.441C238.501 141.683 238.435 141.921 238.305 142.125C238.175 142.33 237.987 142.49 237.765 142.587C237.543 142.684 237.297 142.713 237.059 142.669C236.821 142.626 236.601 142.512 236.427 142.343C236.254 142.174 236.135 141.957 236.085 141.72C236.036 141.483 236.058 141.237 236.149 141.013C236.241 140.788 236.397 140.596 236.598 140.461C236.798 140.326 237.035 140.253 237.277 140.253C237.435 140.251 237.592 140.28 237.739 140.339C237.885 140.398 238.019 140.484 238.132 140.595C238.245 140.705 238.335 140.836 238.398 140.982C238.46 141.127 238.493 141.283 238.495 141.441Z" fill="white"/>
<path d="M236.573 142.107C236.664 142.201 236.774 142.276 236.895 142.327C237.016 142.379 237.146 142.405 237.277 142.406C237.405 142.407 237.532 142.383 237.65 142.335C237.768 142.287 237.876 142.216 237.967 142.126C238.058 142.037 238.131 141.93 238.181 141.812C238.23 141.695 238.257 141.568 238.258 141.441C238.253 141.213 238.166 140.995 238.012 140.828C237.506 141.223 237.025 141.65 236.573 142.107Z" fill="#263238"/>
<path d="M167.806 127.96H130.88C130.078 127.96 129.308 127.646 128.735 127.084C128.163 126.523 127.833 125.759 127.817 124.958V107.923C127.817 96.3037 137.475 86.8444 149.347 86.8444C161.219 86.8444 170.886 96.3037 170.886 107.923V124.958C170.869 125.762 170.537 126.528 169.961 127.09C169.385 127.652 168.611 127.964 167.806 127.96ZM133.944 121.986H164.735V107.923C164.735 103.84 163.113 99.9241 160.226 97.0369C157.339 94.1497 153.423 92.5276 149.34 92.5276C145.257 92.5276 141.341 94.1497 138.453 97.0369C135.566 99.9241 133.944 103.84 133.944 107.923V121.986Z" fill="white" stroke="#263238" stroke-width="0.250749" stroke-linecap="round" stroke-linejoin="round"/>
<path d="M172.54 119.749H125.527V158.644H172.54V119.749Z" fill="#92E3A9" stroke="#263238" stroke-width="0.250749" stroke-linecap="round" stroke-linejoin="round"/>
<path d="M153.928 135.903C153.876 134.579 153.315 133.327 152.36 132.408C151.405 131.49 150.132 130.977 148.807 130.977C147.483 130.977 146.209 131.49 145.255 132.408C144.3 133.327 143.738 134.579 143.687 135.903C143.691 136.813 143.944 137.705 144.417 138.483C144.891 139.26 145.568 139.894 146.375 140.315L145.518 149.146H152.097L151.239 140.315C152.046 139.894 152.723 139.26 153.197 138.483C153.671 137.705 153.923 136.813 153.928 135.903Z" fill="#263238" stroke="#263238" stroke-width="0.250749" stroke-linecap="round" stroke-linejoin="round"/>
<path d="M255.193 292.79C275.286 292.79 291.575 289.19 291.575 284.748C291.575 280.306 275.286 276.706 255.193 276.706C235.099 276.706 218.81 280.306 218.81 284.748C218.81 289.19 235.099 292.79 255.193 292.79Z" fill="#92E3A9"/>
<path opacity="0.5" d="M255.193 292.79C275.286 292.79 291.575 289.19 291.575 284.748C291.575 280.306 275.286 276.706 255.193 276.706C235.099 276.706 218.81 280.306 218.81 284.748C218.81 289.19 235.099 292.79 255.193 292.79Z" fill="white"/>
<path d="M236.167 276.522C236.167 276.522 227.343 281.485 227.343 283.875C227.343 286.264 232.789 284.794 236.35 283.109C239.912 281.424 242.738 280.168 242.738 276.859C242.738 273.55 236.167 276.522 236.167 276.522Z" fill="#92E3A9" stroke="#263238" stroke-width="0.250749" stroke-miterlimit="10"/>
<path d="M278.408 276.522C278.408 276.522 287.232 281.485 287.232 283.875C287.232 286.264 281.786 284.794 278.224 283.109C274.663 281.424 271.836 280.168 271.836 276.859C271.836 273.55 278.408 276.522 278.408 276.522Z" fill="#92E3A9" stroke="#263238" stroke-width="0.250749" stroke-miterlimit="10"/>
<path d="M239.736 195.278L235.975 277.472C236.495 277.899 237.096 278.218 237.743 278.407C238.389 278.597 239.067 278.654 239.736 278.574C240.903 278.402 241.969 277.814 242.738 276.92L255.507 209.831H258.134L271.66 278.176C272.468 278.623 273.366 278.885 274.287 278.942C275.597 278.942 277.665 277.288 277.665 277.288L273.345 195.332L239.736 195.278Z" fill="#263238" stroke="#263238" stroke-width="0.250749" stroke-miterlimit="10"/>
<path d="M252.879 145.469L235.791 152.447L240.295 192.153H272.962L278.975 150.977L260.386 145.102L252.879 145.469Z" fill="#92E3A9" stroke="#263238" stroke-width="0.250749" stroke-miterlimit="10"/>
<path d="M254.756 151.16L256.816 154.469L253.439 182.962L257.567 189.028L261.136 182.411L258.318 154.102L260.761 150.249L257.192 148.686L254.756 151.16Z" fill="#263238" stroke="#263238" stroke-width="0.250749" stroke-miterlimit="10"/>
<path d="M257.192 148.686L254.45 153.382L249.563 146.871L252.297 143.616L257.192 148.686Z" fill="#92E3A9" stroke="#263238" stroke-width="0.250749" stroke-miterlimit="10"/>
<path d="M257.192 148.686L260.516 153.856L264.522 146.488L262.178 143.516L257.192 148.686Z" fill="#92E3A9" stroke="#263238" stroke-width="0.250749" stroke-miterlimit="10"/>
<path d="M250.559 159.8H239.047V163.722L244.806 165.928L250.559 163.477V159.8Z" fill="#92E3A9" stroke="#263238" stroke-width="0.250749" stroke-miterlimit="10"/>
<path d="M273.59 159.8H262.078V163.722L267.831 165.928L273.59 163.477V159.8Z" fill="#92E3A9" stroke="#263238" stroke-width="0.250749" stroke-miterlimit="10"/>
<path d="M273.345 191.418H239.736V195.278H273.345V191.418Z" fill="#263238" stroke="#263238" stroke-width="0.250749" stroke-miterlimit="10"/>
<path d="M239.169 194.543L233.348 196.933C233.252 198.597 233.379 200.266 233.723 201.896C234.29 204.102 235.041 208.882 235.6 209.801C236.159 210.72 238.985 212.558 239.361 212.007C239.736 211.455 241.612 195.278 241.612 195.278L239.169 194.543Z" fill="#263238" stroke="#263238" stroke-width="0.250749" stroke-miterlimit="10"/>
<path d="M252.297 136.914V143.616L257.192 148.686L262.178 143.516V136.814L252.297 136.914Z" fill="white" stroke="#263238" stroke-width="0.250749" stroke-miterlimit="10"/>
<path d="M248.881 130.694C248.881 130.694 248 128.68 247.411 129.928C246.821 131.177 247.51 133.084 248.391 133.85C249.039 134.32 249.841 134.525 250.635 134.425L250.145 131.552L248.881 130.694Z" fill="white" stroke="#263238" stroke-width="0.250749" stroke-miterlimit="10"/>
<path d="M264.813 130.694C264.813 130.694 265.694 128.68 266.283 129.928C266.873 131.177 266.184 133.084 265.303 133.85C264.652 134.32 263.847 134.526 263.051 134.425L263.541 131.552L264.813 130.694Z" fill="white" stroke="#263238" stroke-width="0.250749" stroke-miterlimit="10"/>
<path d="M250.543 117.39C250.543 117.39 246.43 119.113 246.43 121.986C246.43 124.858 247.02 128.113 248 129.362C248.981 130.61 249.754 131.468 249.754 131.468L249.953 127.347L252.787 122.468C252.787 122.468 257.483 125.432 259.826 125.432C261.137 125.444 262.446 125.349 263.74 125.149L264.621 130.028L265.893 126.489V123.234C265.893 123.234 268.236 121.028 267.746 119.596C267.256 118.164 259.321 113.66 254.45 114.809C249.578 115.958 250.543 117.39 250.543 117.39Z" fill="#263238" stroke="#263238" stroke-width="0.250749" stroke-miterlimit="10"/>
<path d="M248.582 127.056C248.582 127.056 249.754 134.233 250.735 136.148C252.024 138.273 253.604 140.206 255.43 141.892C256.112 142.367 258.655 141.984 259.635 141.984C260.615 141.984 263.465 136.24 263.932 135.191C264.399 134.141 264.698 125.141 264.698 125.141L263.84 123.518C263.84 123.518 259.635 124.575 256.311 123.234C254.506 122.588 252.892 121.5 251.616 120.071C251.616 120.071 251.325 123.326 250.145 125.241C248.965 127.156 248.582 127.056 248.582 127.056Z" fill="white" stroke="#263238" stroke-width="0.250749" stroke-miterlimit="10"/>
<path d="M256.112 127.822C254.929 127.204 253.616 126.876 252.282 126.865C251.137 126.819 249.997 127.048 248.958 127.531C248.958 127.531 248.958 130.786 250.038 132.035C251.118 133.283 254.243 132.893 255.124 131.843C256.004 130.794 256.112 127.822 256.112 127.822Z" fill="#263238" stroke="#263238" stroke-width="0.250749" stroke-miterlimit="10"/>
<path d="M257.483 127.822C258.665 127.204 259.978 126.876 261.312 126.865C262.458 126.819 263.597 127.048 264.637 127.531C264.637 127.531 264.637 130.786 263.557 132.035C262.477 133.283 259.352 132.893 258.478 131.843C257.605 130.794 257.483 127.822 257.483 127.822Z" fill="#263238" stroke="#263238" stroke-width="0.250749" stroke-miterlimit="10"/>
<path d="M256.112 127.822H257.483" stroke="#263238" stroke-width="0.250749" stroke-miterlimit="10"/>
<path d="M235.975 188.477L242.172 188.293L246.867 192.521C246.859 193.062 246.661 193.583 246.308 193.992C245.741 194.543 244.24 194.176 244.24 194.176C244.24 194.176 243.114 196.933 241.046 196.933C238.978 196.933 233.386 193.103 233.386 193.103L235.975 188.477Z" fill="white" stroke="#263238" stroke-width="0.250749" stroke-miterlimit="10"/>
<path d="M235.791 152.447L214.95 179.837L233.348 193.073L235.975 188.477L230.345 177.631L238.043 170.646L235.791 152.447Z" fill="#92E3A9" stroke="#263238" stroke-width="0.250749" stroke-miterlimit="10"/>
<path d="M234.474 185.352L231.288 191.051" stroke="#263238" stroke-width="0.250749" stroke-linecap="round" stroke-linejoin="round"/>
<path d="M230.345 177.631L227.902 171.381" stroke="#263238" stroke-width="0.250749" stroke-linecap="round" stroke-linejoin="round"/>
<path d="M278.975 188.477L272.778 188.293L268.083 192.521C268.093 193.063 268.294 193.584 268.65 193.992C269.209 194.543 270.71 194.176 270.71 194.176C270.71 194.176 271.836 196.933 273.904 196.933C275.972 196.933 281.602 193.103 281.602 193.103L278.975 188.477Z" fill="white" stroke="#263238" stroke-width="0.250749" stroke-miterlimit="10"/>
<path d="M278.975 150.976L300 179.837L281.602 193.073L278.975 188.477L284.605 177.631L275.781 170.462L278.975 150.976Z" fill="#92E3A9" stroke="#263238" stroke-width="0.250749" stroke-miterlimit="10"/>
<path d="M280.476 185.352L283.663 191.051" stroke="#263238" stroke-width="0.250749" stroke-linecap="round" stroke-linejoin="round"/>
<path d="M284.605 177.631L287.048 171.381" stroke="#263238" stroke-width="0.250749" stroke-linecap="round" stroke-linejoin="round"/>
<path d="M42.2612 292.79C62.3545 292.79 78.6433 289.19 78.6433 284.748C78.6433 280.306 62.3545 276.706 42.2612 276.706C22.1679 276.706 5.87904 280.306 5.87904 284.748C5.87904 289.19 22.1679 292.79 42.2612 292.79Z" fill="#92E3A9"/>
<path opacity="0.5" d="M42.2612 292.79C62.3545 292.79 78.6433 289.19 78.6433 284.748C78.6433 280.306 62.3545 276.706 42.2612 276.706C22.1679 276.706 5.87904 280.306 5.87904 284.748C5.87904 289.19 22.1679 292.79 42.2612 292.79Z" fill="white"/>
<path d="M23.3578 276.522C23.3578 276.522 14.5342 281.485 14.5342 283.875C14.5342 286.264 19.98 284.794 23.5493 283.109C27.1186 281.424 29.9296 280.168 29.9296 276.859C29.9296 273.55 23.3578 276.522 23.3578 276.522Z" fill="#92E3A9" stroke="#263238" stroke-width="0.250749" stroke-miterlimit="10"/>
<path d="M65.6224 276.522C65.6224 276.522 74.446 281.485 74.446 283.875C74.446 286.264 69.0078 284.794 65.4385 283.109C61.8693 281.424 59.0506 280.168 59.0506 276.859C59.0506 273.55 65.6224 276.522 65.6224 276.522Z" fill="#92E3A9" stroke="#263238" stroke-width="0.250749" stroke-miterlimit="10"/>
<path d="M26.9271 195.278L23.174 277.471C23.6925 277.9 24.2924 278.218 24.9375 278.408C25.5826 278.597 26.2594 278.654 26.9271 278.574C28.0942 278.402 29.16 277.814 29.9296 276.92L42.6978 209.831H45.325L58.8438 278.207C59.6518 278.654 60.5492 278.916 61.471 278.973C62.7884 278.973 64.8488 277.318 64.8488 277.318L60.5289 195.363L26.9271 195.278Z" fill="#263238" stroke="#263238" stroke-width="0.250749" stroke-miterlimit="10"/>
<path d="M40.0706 145.469L22.9825 152.447L27.4862 192.153H60.1612L66.1662 150.977L47.5768 145.102L40.0706 145.469Z" fill="#92E3A9" stroke="#263238" stroke-width="0.250749" stroke-miterlimit="10"/>
<path d="M60.5365 191.418H26.9271V195.278H60.5365V191.418Z" fill="#263238" stroke="#263238" stroke-width="0.250749" stroke-miterlimit="10"/>
<path d="M26.3603 194.543L20.5391 196.933C20.4437 198.597 20.5699 200.266 20.9145 201.896C21.4812 204.102 22.2319 208.882 22.7987 209.801C23.3655 210.72 26.1765 212.558 26.5518 212.007C26.9271 211.455 28.8036 195.278 28.8036 195.278L26.3603 194.543Z" fill="#263238" stroke="#263238" stroke-width="0.250749" stroke-miterlimit="10"/>
<path d="M39.4962 136.914V143.616L44.3828 148.686L49.3691 143.516V136.814L39.4962 136.914Z" fill="white" stroke="#263238" stroke-width="0.250749" stroke-miterlimit="10"/>
<path d="M36.0724 130.694C36.0724 130.694 35.1916 128.68 34.6018 129.928C34.012 131.177 34.7014 133.084 35.5822 133.85C36.2328 134.32 37.0378 134.526 37.8341 134.425L37.3439 131.552L36.0724 130.694Z" fill="white" stroke="#263238" stroke-width="0.250749" stroke-miterlimit="10"/>
<path d="M52.004 130.694C52.004 130.694 52.8848 128.68 53.4746 129.928C54.0643 131.177 53.375 133.084 52.4942 133.85C51.8463 134.32 51.0438 134.525 50.25 134.425L50.7325 131.552L52.004 130.694Z" fill="white" stroke="#263238" stroke-width="0.250749" stroke-miterlimit="10"/>
<path d="M37.7345 117.39C37.7345 117.39 33.6291 119.113 33.6291 121.986C33.6291 124.858 34.2112 128.113 35.1609 129.362C36.1107 130.61 36.9226 131.468 36.9226 131.468L37.1141 127.347L39.9481 122.468C39.9481 122.468 44.6433 125.432 46.987 125.432C48.2972 125.444 49.6062 125.349 50.901 125.149L51.7818 130.028L53.0533 126.489V123.234C53.0533 123.234 55.3971 121.028 54.9069 119.596C54.4167 118.164 46.4815 113.66 41.6102 114.809C36.7388 115.958 37.7345 117.39 37.7345 117.39Z" fill="#263238" stroke="#263238" stroke-width="0.250749" stroke-miterlimit="10"/>
<path d="M35.7507 127.056C35.7507 127.056 36.9303 134.233 37.903 136.148C39.2078 138.277 40.8036 140.213 42.6442 141.9C43.3259 142.375 45.8688 141.992 46.8492 141.992C47.8296 141.992 50.6789 136.247 51.1538 135.198C51.6287 134.149 51.9197 125.149 51.9197 125.149L51.0695 123.518C51.0695 123.518 46.8645 124.575 43.5403 123.234C41.7359 122.588 40.1218 121.5 38.8451 120.071C38.8451 120.071 38.5541 123.326 37.3822 125.241C36.2103 127.156 35.7507 127.056 35.7507 127.056Z" fill="white" stroke="#263238" stroke-width="0.250749" stroke-miterlimit="10"/>
<path d="M43.3029 127.822C42.1202 127.204 40.8076 126.876 39.4732 126.865C38.3279 126.819 37.1883 127.048 36.149 127.531C36.149 127.531 36.149 130.786 37.2213 132.035C38.2936 133.283 41.4263 132.893 42.3072 131.843C43.188 130.794 43.3029 127.822 43.3029 127.822Z" fill="#263238" stroke="#263238" stroke-width="0.250749" stroke-miterlimit="10"/>
<path d="M44.6739 127.822C45.8567 127.204 47.1692 126.876 48.5036 126.865C49.6489 126.819 50.7885 127.048 51.8278 127.531C51.8278 127.531 51.8278 130.786 50.7478 132.035C49.6678 133.283 46.5505 132.893 45.6696 131.843C44.7888 130.794 44.6739 127.822 44.6739 127.822Z" fill="#263238" stroke="#263238" stroke-width="0.250749" stroke-miterlimit="10"/>
<path d="M43.3029 127.822H44.6739" stroke="#263238" stroke-width="0.250749" stroke-miterlimit="10"/>
<path d="M41.9472 151.16L44.0075 154.469L40.6298 182.962L44.7658 189.028L48.3274 182.411L45.5164 154.102L47.9521 150.249L44.3829 148.686L41.9472 151.16Z" fill="#263238" stroke="#263238" stroke-width="0.250749" stroke-miterlimit="10"/>
<path d="M44.3829 148.686L41.6408 153.382L36.7541 146.871L39.4962 143.616L44.3829 148.686Z" fill="#92E3A9" stroke="#263238" stroke-width="0.250749" stroke-miterlimit="10"/>
<path d="M44.3829 148.686L47.707 153.856L51.7129 146.488L49.3691 143.516L44.3829 148.686Z" fill="#92E3A9" stroke="#263238" stroke-width="0.250749" stroke-miterlimit="10"/>
<path d="M22.9825 152.447L2.14127 179.837L20.5391 193.073L23.174 188.477L17.5367 177.631L25.2344 170.646L22.9825 152.447Z" fill="#92E3A9" stroke="#263238" stroke-width="0.250749" stroke-miterlimit="10"/>
<path d="M23.174 188.477L29.3628 188.293L34.058 192.521C34.0505 193.062 33.8525 193.583 33.4988 193.992C32.932 194.543 31.4308 194.176 31.4308 194.176C31.4308 194.176 30.3049 196.933 28.2368 196.933C26.1688 196.933 20.5774 193.103 20.5774 193.103L23.174 188.477Z" fill="white" stroke="#263238" stroke-width="0.250749" stroke-miterlimit="10"/>
<path d="M21.6727 185.352L18.4788 191.051" stroke="#263238" stroke-width="0.250749" stroke-linecap="round" stroke-linejoin="round"/>
<path d="M17.5367 177.631L15.101 171.381" stroke="#263238" stroke-width="0.250749" stroke-linecap="round" stroke-linejoin="round"/>
<path d="M66.1662 150.976L87.1912 179.837L68.7934 193.073L66.1662 188.477L71.7958 177.631L62.9722 170.462L66.1662 150.976Z" fill="#92E3A9" stroke="#263238" stroke-width="0.250749" stroke-miterlimit="10"/>
<path d="M66.1662 188.477L59.9697 188.293L55.2745 192.521C55.2842 193.063 55.4849 193.584 55.8413 193.992C56.4005 194.543 57.9017 194.176 57.9017 194.176C57.9017 194.176 59.0276 196.933 61.0957 196.933C63.1637 196.933 68.7551 193.103 68.7551 193.103L66.1662 188.477Z" fill="white" stroke="#263238" stroke-width="0.250749" stroke-miterlimit="10"/>
<path d="M67.6674 185.352L70.8614 191.051" stroke="#263238" stroke-width="0.250749" stroke-linecap="round" stroke-linejoin="round"/>
<path d="M71.7958 177.631L74.2392 171.381" stroke="#263238" stroke-width="0.250749" stroke-linecap="round" stroke-linejoin="round"/>
<path d="M37.7498 159.8H26.2377V163.722L31.9976 165.928L37.7498 163.477V159.8Z" fill="#92E3A9" stroke="#263238" stroke-width="0.250749" stroke-miterlimit="10"/>
<path d="M60.7816 159.8H49.2696V163.722L55.0294 165.928L60.7816 163.477V159.8Z" fill="#92E3A9" stroke="#263238" stroke-width="0.250749" stroke-miterlimit="10"/>
</svg>
