<svg width="49" height="49" viewBox="0 0 49 49" fill="none" xmlns="http://www.w3.org/2000/svg">
<rect x="10.3528" width="40" height="40" rx="10" transform="rotate(15 10.3528 0)" fill="#003912"/>
<g clip-path="url(#clip0_1_483)">
<path d="M24.0756 24.4676C24.6069 24.61 25.1126 24.5425 25.5927 24.2654C26.0728 23.9882 26.3836 23.5842 26.5251 23.0534C26.6675 22.5221 26.6 22.0165 26.3229 21.5364C26.0457 21.0563 25.6417 20.7454 25.1109 20.6039C24.5796 20.4615 24.074 20.529 23.5939 20.8062C23.1138 21.0833 22.8029 21.4873 22.6614 22.0181C22.5191 22.5494 22.5865 23.0551 22.8637 23.5352C23.1408 24.0153 23.5448 24.3261 24.0756 24.4676ZM21.4874 34.1269C19.4865 31.2268 18.0996 28.6598 17.3269 26.4256C16.5541 24.1915 16.3832 22.2691 16.8141 20.6584C17.4611 18.2436 18.7535 16.5279 20.6913 15.5115C22.6291 14.4951 24.6199 14.2607 26.6638 14.8083C28.7084 15.3562 30.3156 16.5547 31.4855 18.4038C32.6555 20.253 32.9166 22.3848 32.2689 24.7995C31.8375 26.4094 30.7283 27.9888 28.9412 29.5377C27.1541 31.0866 24.6695 32.6163 21.4874 34.1269Z" fill="white"/>
</g>
<defs>
<clipPath id="clip0_1_483">
<rect width="24" height="24" fill="white" transform="translate(15.5903 9.77075) rotate(15)"/>
</clipPath>
</defs>
</svg>
