<svg width="41" height="40" viewBox="0 0 41 40" fill="none" xmlns="http://www.w3.org/2000/svg">
<rect x="0.904602" width="40" height="40" rx="10" fill="#003912"/>
<path d="M20.4926 9.08228L11.4926 13.0823V19.0823C11.4926 24.6323 15.3326 29.8223 20.4926 31.0823C25.6526 29.8223 29.4926 24.6323 29.4926 19.0823V13.0823L20.4926 9.08228ZM20.4926 15.0823C21.8926 15.0823 23.2926 16.1823 23.2926 17.5823V19.0823C23.8926 19.0823 24.4926 19.6823 24.4926 20.3823V23.8823C24.4926 24.4823 23.8926 25.0823 23.1926 25.0823H17.6926C17.0926 25.0823 16.4926 24.4823 16.4926 23.7823V20.2823C16.4926 19.6823 17.0926 19.0823 17.6926 19.0823V17.5823C17.6926 16.1823 19.0926 15.0823 20.4926 15.0823ZM20.4926 16.2823C19.6926 16.2823 18.9926 16.7823 18.9926 17.5823V19.0823H21.9926V17.5823C21.9926 16.7823 21.2926 16.2823 20.4926 16.2823Z" fill="white"/>
</svg>
