<svg width="50" height="50" viewBox="0 0 50 50" fill="none" xmlns="http://www.w3.org/2000/svg">
<rect x="10.7625" y="0.229248" width="40" height="40" rx="10" transform="rotate(15 10.7625 0.229248)" fill="#003912"/>
<g clip-path="url(#clip0_1_480)">
<path d="M35.8705 20.1292C35.8103 20.0068 35.7254 19.8982 35.6212 19.8101C35.5171 19.722 35.3959 19.6563 35.2652 19.6172C33.2332 19.0155 31.2302 16.1336 29.7484 14.8163C28.8326 14.0042 28.2279 13.4685 27.7282 13.2362C27.6259 13.1921 27.5176 13.1635 27.407 13.1511C26.8581 13.1024 26.0665 13.264 24.8683 13.5096C22.9265 13.9086 19.751 15.4029 17.6904 14.9081C17.5575 14.8768 17.4196 14.8731 17.2852 14.8972C17.1508 14.9214 17.0229 14.9729 16.9092 15.0486C16.6739 15.2045 16.5092 15.4465 16.4505 15.7227C14.4955 24.7772 16.2189 31.1668 20.982 35.8881C21.106 36.0103 21.2568 36.0965 21.4182 36.1398C21.5796 36.183 21.7533 36.1837 21.9227 36.1402C28.4083 34.4329 33.0948 29.7608 35.9298 20.9421C36.0179 20.6739 35.9966 20.3818 35.8705 20.1292ZM30.4563 22.4456L23.8336 28.1776C23.5959 28.3834 23.2837 28.4785 23.0189 28.4075C22.7532 28.3363 22.497 28.1119 22.3606 27.8756L19.9119 23.633C19.832 23.4941 19.8105 23.3292 19.852 23.1745C19.8934 23.0197 19.9945 22.8877 20.1331 22.8073L21.1816 22.2005C21.3206 22.1211 21.4853 22.0999 21.6399 22.1413C21.7945 22.1827 21.9265 22.2835 22.0072 22.4217L23.5999 25.1802L28.8743 20.6141C28.996 20.5098 29.1539 20.458 29.3137 20.4698C29.4735 20.4816 29.6221 20.5562 29.727 20.6772L30.5186 21.5927C30.623 21.7142 30.6751 21.8722 30.6634 22.032C30.6517 22.1918 30.5773 22.3405 30.4563 22.4456Z" fill="white"/>
</g>
<defs>
<clipPath id="clip0_1_480">
<rect width="24" height="24" fill="white" transform="translate(16 10) rotate(15)"/>
</clipPath>
</defs>
</svg>
