<svg width="20" height="20" viewBox="0 0 20 20" fill="none" xmlns="http://www.w3.org/2000/svg">
<path d="M5.79976 0H14.1998C17.3998 0 19.9998 2.6 19.9998 5.8V14.2C19.9998 15.7383 19.3887 17.2135 18.301 18.3012C17.2133 19.3889 15.738 20 14.1998 20H5.79976C2.59976 20 -0.000244141 17.4 -0.000244141 14.2V5.8C-0.000244141 4.26174 0.610826 2.78649 1.69854 1.69878C2.78625 0.61107 4.2615 0 5.79976 0ZM5.59976 2C4.64498 2 3.7293 2.37928 3.05417 3.05442C2.37904 3.72955 1.99976 4.64522 1.99976 5.6V14.4C1.99976 16.39 3.60976 18 5.59976 18H14.3998C15.3545 18 16.2702 17.6207 16.9453 16.9456C17.6205 16.2705 17.9998 15.3548 17.9998 14.4V5.6C17.9998 3.61 16.3898 2 14.3998 2H5.59976ZM15.2498 3.5C15.5813 3.5 15.8992 3.6317 16.1336 3.86612C16.3681 4.10054 16.4998 4.41848 16.4998 4.75C16.4998 5.08152 16.3681 5.39946 16.1336 5.63388C15.8992 5.8683 15.5813 6 15.2498 6C14.9182 6 14.6003 5.8683 14.3659 5.63388C14.1315 5.39946 13.9998 5.08152 13.9998 4.75C13.9998 4.41848 14.1315 4.10054 14.3659 3.86612C14.6003 3.6317 14.9182 3.5 15.2498 3.5ZM9.99976 5C11.3258 5 12.5976 5.52678 13.5353 6.46447C14.473 7.40215 14.9998 8.67392 14.9998 10C14.9998 11.3261 14.473 12.5979 13.5353 13.5355C12.5976 14.4732 11.3258 15 9.99976 15C8.67367 15 7.4019 14.4732 6.46422 13.5355C5.52654 12.5979 4.99976 11.3261 4.99976 10C4.99976 8.67392 5.52654 7.40215 6.46422 6.46447C7.4019 5.52678 8.67367 5 9.99976 5ZM9.99976 7C9.20411 7 8.44104 7.31607 7.87844 7.87868C7.31583 8.44129 6.99976 9.20435 6.99976 10C6.99976 10.7956 7.31583 11.5587 7.87844 12.1213C8.44104 12.6839 9.20411 13 9.99976 13C10.7954 13 11.5585 12.6839 12.1211 12.1213C12.6837 11.5587 12.9998 10.7956 12.9998 10C12.9998 9.20435 12.6837 8.44129 12.1211 7.87868C11.5585 7.31607 10.7954 7 9.99976 7Z" fill="white"/>
</svg>
