<svg width="22" height="17" viewBox="0 0 22 17" fill="none" xmlns="http://www.w3.org/2000/svg">
<path d="M21.4597 2C20.6897 2.35 19.8597 2.58 18.9997 2.69C19.8797 2.16 20.5597 1.32 20.8797 0.31C20.0497 0.81 19.1297 1.16 18.1597 1.36C17.3697 0.5 16.2597 0 14.9997 0C12.6497 0 10.7297 1.92 10.7297 4.29C10.7297 4.63 10.7697 4.96 10.8397 5.27C7.27973 5.09 4.10973 3.38 1.99973 0.79C1.62973 1.42 1.41973 2.16 1.41973 2.94C1.41973 4.43 2.16973 5.75 3.32973 6.5C2.61973 6.5 1.95973 6.3 1.37973 6V6.03C1.37973 8.11 2.85973 9.85 4.81973 10.24C4.19046 10.4122 3.52983 10.4362 2.88973 10.31C3.16134 11.1625 3.69327 11.9084 4.41075 12.4429C5.12823 12.9775 5.99518 13.2737 6.88973 13.29C5.37336 14.4904 3.49373 15.1393 1.55973 15.13C1.21973 15.13 0.879734 15.11 0.539734 15.07C2.43973 16.29 4.69973 17 7.11973 17C14.9997 17 19.3297 10.46 19.3297 4.79C19.3297 4.6 19.3297 4.42 19.3197 4.23C20.1597 3.63 20.8797 2.87 21.4597 2Z" fill="white"/>
</svg>
