<svg width="20" height="20" viewBox="0 0 20 20" fill="none" xmlns="http://www.w3.org/2000/svg">
<path d="M0.00376924 20L1.35577 15.032C0.464907 13.5049 -0.00313477 11.768 -0.000230708 10C-0.000230708 4.477 4.47677 0 9.99977 0C15.5228 0 19.9998 4.477 19.9998 10C19.9998 15.523 15.5228 20 9.99977 20C8.23255 20.0029 6.49643 19.5352 4.96977 18.645L0.00376924 20ZM6.39077 5.308C6.26163 5.31602 6.13544 5.35003 6.01977 5.408C5.91129 5.46943 5.81227 5.54622 5.72577 5.636C5.60577 5.749 5.53777 5.847 5.46477 5.942C5.09518 6.423 4.89638 7.01342 4.89977 7.62C4.90177 8.11 5.02977 8.587 5.22977 9.033C5.63877 9.935 6.31177 10.89 7.20077 11.775C7.41477 11.988 7.62377 12.202 7.84877 12.401C8.95216 13.3725 10.267 14.073 11.6888 14.447L12.2578 14.534C12.4428 14.544 12.6278 14.53 12.8138 14.521C13.105 14.506 13.3894 14.4271 13.6468 14.29C13.7777 14.2225 13.9055 14.1491 14.0298 14.07C14.0298 14.07 14.0728 14.042 14.1548 13.98C14.2898 13.88 14.3728 13.809 14.4848 13.692C14.5678 13.606 14.6398 13.505 14.6948 13.39C14.7728 13.227 14.8508 12.916 14.8828 12.657C14.9068 12.459 14.8998 12.351 14.8968 12.284C14.8928 12.177 14.8038 12.066 14.7068 12.019L14.1248 11.758C14.1248 11.758 13.2548 11.379 12.7238 11.137C12.6678 11.1126 12.6078 11.0987 12.5468 11.096C12.4783 11.089 12.4092 11.0967 12.344 11.1186C12.2788 11.1405 12.2191 11.1761 12.1688 11.223V11.221C12.1638 11.221 12.0968 11.278 11.3738 12.154C11.3323 12.2098 11.2751 12.2519 11.2096 12.2751C11.144 12.2982 11.0731 12.3013 11.0058 12.284C10.9406 12.2666 10.8768 12.2445 10.8148 12.218C10.6908 12.166 10.6478 12.146 10.5628 12.109L10.5578 12.107C9.98568 11.8572 9.45599 11.5198 8.98777 11.107C8.86177 10.997 8.74477 10.877 8.62477 10.761C8.23135 10.3842 7.88848 9.95801 7.60477 9.493L7.54577 9.398C7.50339 9.33416 7.46913 9.2653 7.44377 9.193C7.40577 9.046 7.50477 8.928 7.50477 8.928C7.50477 8.928 7.74777 8.662 7.86077 8.518C7.95486 8.39832 8.04264 8.27382 8.12377 8.145C8.24177 7.955 8.27877 7.76 8.21677 7.609C7.93677 6.925 7.64677 6.244 7.34877 5.568C7.28977 5.434 7.11477 5.338 6.95577 5.319C6.90177 5.313 6.84777 5.307 6.79377 5.303C6.65948 5.29633 6.5249 5.29866 6.39077 5.308Z" fill="white"/>
</svg>
